<svg id="svg" version="1.1" xmlns="http://www.w3.org/2000/svg" xmlns:xlink="http://www.w3.org/1999/xlink" width="400" height="400" viewBox="0, 0, 400,400"><g id="svgg"><path id="path0" d="M98.600 0.267 C 97.940 0.347,96.320 0.586,95.000 0.797 C 93.680 1.008,91.880 1.287,91.000 1.418 C 87.840 1.887,78.673 4.195,76.400 5.094 C 76.070 5.224,75.710 5.355,75.600 5.385 C 74.589 5.659,73.225 6.125,72.400 6.479 C 70.747 7.187,69.875 7.522,68.300 8.054 C 67.475 8.333,66.800 8.705,66.800 8.880 C 66.800 9.056,66.665 9.171,66.500 9.135 C 65.906 9.007,56.959 13.288,56.400 13.968 C 56.290 14.101,55.342 14.643,54.294 15.171 C 53.246 15.699,52.189 16.372,51.945 16.666 C 51.702 16.960,51.254 17.200,50.951 17.200 C 50.648 17.200,50.400 17.380,50.400 17.600 C 50.400 17.820,50.201 18.000,49.958 18.000 C 49.714 18.000,48.833 18.540,48.000 19.200 C 47.167 19.860,46.301 20.400,46.076 20.400 C 45.851 20.400,45.607 20.535,45.533 20.700 C 45.460 20.865,44.680 21.537,43.800 22.193 C 41.292 24.064,40.850 24.436,37.851 27.200 C 32.085 32.514,27.234 37.305,27.316 37.605 C 27.362 37.776,26.938 38.339,26.373 38.858 C 25.808 39.376,24.732 40.610,23.983 41.600 C 23.234 42.590,22.512 43.490,22.380 43.600 C 22.248 43.710,21.799 44.385,21.384 45.100 C 20.968 45.815,20.486 46.400,20.314 46.400 C 20.141 46.400,20.000 46.593,20.000 46.829 C 20.000 47.064,19.775 47.508,19.500 47.815 C 18.334 49.115,18.000 49.587,18.000 49.934 C 18.000 50.136,17.732 50.524,17.404 50.796 C 17.077 51.068,16.907 51.450,17.028 51.645 C 17.149 51.840,17.047 52.000,16.803 52.000 C 16.558 52.000,16.170 52.540,15.940 53.200 C 15.710 53.860,15.359 54.400,15.161 54.400 C 14.962 54.400,14.800 54.628,14.800 54.907 C 14.800 55.186,14.344 56.086,13.786 56.907 C 13.228 57.728,12.896 58.400,13.048 58.400 C 13.200 58.400,13.061 58.715,12.739 59.100 C 12.046 59.931,11.031 62.074,11.130 62.500 C 11.169 62.665,11.020 62.800,10.800 62.800 C 10.580 62.800,10.429 62.935,10.465 63.100 C 10.500 63.265,10.290 63.940,9.998 64.600 C 9.706 65.260,9.437 65.890,9.400 66.000 C 9.363 66.110,9.110 66.740,8.838 67.400 C 8.566 68.060,8.337 68.690,8.329 68.800 C 8.321 68.910,7.995 69.630,7.605 70.400 C 5.694 74.172,1.757 89.154,1.056 95.319 C 0.030 104.350,-0.043 112.602,0.092 205.000 C 0.247 310.664,0.065 302.666,2.598 314.957 C 3.546 319.556,6.846 330.761,7.559 331.800 C 7.710 332.020,8.073 332.920,8.367 333.800 C 9.205 336.309,14.465 346.674,16.756 350.330 C 31.785 374.311,53.959 390.888,81.906 399.036 L 85.212 400.000 201.719 400.000 L 318.225 400.000 323.027 398.618 C 327.380 397.364,334.269 394.902,335.939 394.002 C 336.302 393.806,338.367 392.831,340.527 391.836 C 350.879 387.063,362.126 379.045,371.013 370.101 C 374.505 366.586,380.419 359.641,381.827 357.400 C 382.242 356.740,382.697 356.110,382.838 356.000 C 383.920 355.157,388.744 346.871,391.805 340.600 C 395.242 333.558,397.076 328.878,399.175 321.799 L 400.005 318.998 399.903 200.599 L 399.800 82.200 397.732 76.200 C 394.560 67.000,389.790 56.695,386.957 52.927 C 386.431 52.226,386.000 51.545,386.000 51.413 C 386.000 50.963,381.809 45.009,379.191 41.739 C 361.204 19.277,336.436 5.062,307.840 0.788 C 303.034 0.070,104.264 -0.426,98.600 0.267 M299.702 36.196 C 305.601 36.886,310.648 38.066,314.545 39.665 C 316.055 40.285,317.450 40.693,317.645 40.572 C 317.840 40.452,318.000 40.554,318.000 40.800 C 318.000 41.046,318.160 41.149,318.355 41.028 C 318.550 40.907,318.939 41.085,319.219 41.423 C 319.499 41.760,319.964 41.946,320.251 41.836 C 320.539 41.725,320.881 41.807,321.010 42.017 C 321.140 42.227,322.207 42.853,323.380 43.408 C 324.554 43.963,326.168 44.861,326.968 45.404 C 327.768 45.947,329.002 46.684,329.711 47.042 C 330.420 47.400,331.405 48.064,331.900 48.517 C 332.395 48.969,332.800 49.218,332.800 49.070 C 332.800 48.921,333.133 49.115,333.539 49.500 C 333.946 49.885,334.800 50.560,335.438 51.000 C 336.076 51.440,337.516 52.655,338.638 53.700 C 339.759 54.745,340.896 55.600,341.162 55.600 C 341.429 55.600,341.536 55.780,341.400 56.000 C 341.264 56.220,341.433 56.400,341.776 56.400 C 342.119 56.400,342.400 56.548,342.400 56.729 C 342.400 56.909,343.525 58.268,344.900 59.748 C 346.275 61.228,347.940 63.159,348.600 64.040 C 349.260 64.921,350.250 66.218,350.800 66.922 C 352.017 68.481,352.498 69.246,353.803 71.700 C 354.359 72.745,355.001 73.600,355.230 73.600 C 355.460 73.600,355.536 73.780,355.400 74.000 C 355.264 74.220,355.343 74.400,355.576 74.400 C 355.809 74.400,355.962 74.535,355.915 74.700 C 355.868 74.865,356.396 76.170,357.087 77.600 C 358.371 80.255,359.051 81.887,359.172 82.600 C 359.209 82.820,359.504 83.405,359.829 83.900 C 360.153 84.395,360.318 84.800,360.195 84.800 C 360.072 84.800,360.195 85.205,360.467 85.700 C 360.740 86.195,360.989 86.780,361.021 87.000 C 361.052 87.220,361.119 87.490,361.170 87.600 C 361.220 87.710,361.337 88.115,361.431 88.500 C 361.661 89.452,361.791 89.937,362.316 91.800 C 363.163 94.803,364.475 102.990,364.593 105.998 C 364.797 111.216,364.816 290.954,364.613 292.819 C 364.506 293.799,364.330 295.680,364.220 297.000 C 364.111 298.320,363.941 299.782,363.843 300.249 C 363.746 300.716,363.556 301.787,363.422 302.628 C 363.289 303.469,362.718 305.877,362.155 307.979 C 361.591 310.080,361.071 312.093,360.998 312.450 C 360.925 312.808,360.460 314.041,359.966 315.191 C 359.471 316.340,359.067 317.533,359.067 317.840 C 359.067 318.148,358.906 318.400,358.710 318.400 C 358.513 318.400,358.455 318.565,358.579 318.766 C 358.703 318.967,358.664 319.192,358.491 319.266 C 358.319 319.340,357.663 320.570,357.034 322.000 C 356.405 323.430,355.372 325.380,354.737 326.333 C 354.102 327.286,353.243 328.731,352.828 329.545 C 352.413 330.358,351.337 331.915,350.437 333.005 C 349.537 334.094,348.800 335.132,348.800 335.312 C 348.800 335.491,348.324 336.080,347.742 336.619 C 347.159 337.159,346.784 337.600,346.908 337.600 C 347.248 337.600,340.010 344.774,337.828 346.600 C 336.777 347.480,335.687 348.416,335.406 348.681 C 335.125 348.945,334.804 349.071,334.693 348.960 C 334.582 348.849,334.135 349.211,333.699 349.765 C 333.263 350.319,332.821 350.687,332.716 350.582 C 332.611 350.478,332.058 350.825,331.487 351.354 C 330.916 351.883,330.348 352.215,330.225 352.091 C 330.101 351.968,330.000 352.063,330.000 352.302 C 330.000 352.542,329.399 352.936,328.665 353.178 C 327.931 353.421,326.941 353.982,326.465 354.425 C 325.989 354.868,325.600 355.106,325.600 354.954 C 325.600 354.801,325.240 355.002,324.800 355.400 C 324.360 355.798,324.000 355.996,324.000 355.839 C 324.000 355.516,321.777 356.684,320.658 357.596 C 320.250 357.928,319.838 358.138,319.742 358.061 C 319.647 357.985,318.181 358.463,316.484 359.123 C 311.968 360.880,311.823 360.931,311.545 360.879 C 311.405 360.852,310.685 361.013,309.945 361.237 C 309.205 361.461,308.240 361.741,307.800 361.860 C 306.365 362.249,301.434 363.223,300.000 363.402 C 299.230 363.498,298.060 363.663,297.400 363.769 C 295.933 364.004,103.641 364.073,103.262 363.838 C 103.113 363.746,101.823 363.546,100.396 363.392 C 96.692 362.994,96.271 362.930,95.600 362.668 C 94.963 362.419,90.688 361.321,89.379 361.070 C 88.951 360.987,88.240 360.786,87.800 360.622 C 87.360 360.458,86.100 359.986,85.000 359.573 C 81.594 358.295,80.607 357.944,80.400 357.938 C 80.290 357.935,79.975 357.745,79.700 357.517 C 79.425 357.289,79.195 357.259,79.188 357.451 C 79.181 357.643,78.990 357.481,78.763 357.092 C 78.536 356.702,78.194 356.480,78.003 356.598 C 77.812 356.716,77.540 356.627,77.400 356.400 C 77.260 356.173,76.977 356.091,76.772 356.217 C 76.568 356.344,76.400 356.257,76.400 356.024 C 76.400 355.791,76.201 355.600,75.958 355.600 C 75.715 355.600,74.710 355.056,73.725 354.391 C 72.740 353.727,71.269 352.843,70.455 352.428 C 69.642 352.013,68.085 350.937,66.995 350.037 C 65.906 349.137,64.857 348.400,64.665 348.400 C 64.473 348.400,63.960 347.948,63.526 347.396 C 63.091 346.844,62.601 346.476,62.437 346.577 C 62.272 346.679,61.468 345.961,60.649 344.981 C 59.830 344.001,58.899 343.200,58.580 343.200 C 58.261 343.200,58.000 343.060,58.000 342.889 C 58.000 342.718,57.505 342.024,56.900 341.346 C 55.021 339.242,51.457 334.900,50.200 333.185 C 49.540 332.284,48.685 331.199,48.300 330.773 C 47.915 330.348,47.735 329.997,47.900 329.994 C 48.065 329.991,48.008 329.856,47.772 329.694 C 47.537 329.532,46.936 328.545,46.437 327.500 C 45.937 326.455,45.354 325.600,45.141 325.600 C 44.927 325.600,44.847 325.447,44.963 325.261 C 45.078 325.074,44.853 324.579,44.464 324.161 C 44.074 323.742,43.719 323.220,43.676 323.000 C 43.392 321.575,42.671 320.000,42.302 320.000 C 42.063 320.000,41.972 319.895,42.100 319.767 C 42.228 319.639,41.907 318.616,41.388 317.494 C 40.868 316.373,40.534 315.307,40.645 315.127 C 40.756 314.947,40.657 314.800,40.424 314.800 C 40.191 314.800,40.000 314.350,40.000 313.800 C 40.000 313.250,39.809 312.800,39.576 312.800 C 39.343 312.800,39.269 312.612,39.411 312.382 C 39.553 312.153,39.451 311.703,39.185 311.382 C 38.920 311.062,38.806 310.800,38.933 310.800 C 39.060 310.800,38.910 310.077,38.598 309.194 C 38.286 308.311,38.022 307.456,38.011 307.294 C 38.000 307.132,37.909 306.730,37.810 306.400 C 36.416 301.771,36.389 299.784,36.399 201.000 C 36.408 97.290,36.319 102.105,38.410 93.240 C 39.221 89.803,39.584 88.661,41.535 83.400 C 51.196 57.360,77.337 38.089,106.000 35.879 C 112.847 35.351,295.027 35.649,299.702 36.196 M306.398 66.680 C 306.396 66.856,305.432 67.022,304.256 67.049 C 303.079 67.077,301.100 67.479,299.858 67.944 C 298.616 68.409,297.600 68.673,297.600 68.532 C 297.600 68.391,297.240 68.602,296.800 69.000 C 296.360 69.398,296.000 69.578,296.000 69.400 C 296.000 69.222,295.631 69.410,295.181 69.817 C 294.730 70.225,294.109 70.596,293.801 70.641 C 293.493 70.686,292.813 71.146,292.291 71.662 C 291.769 72.178,290.502 73.320,289.476 74.200 C 288.450 75.080,287.608 76.025,287.605 76.300 C 287.602 76.575,287.420 76.800,287.200 76.800 C 286.980 76.800,286.797 77.025,286.793 77.300 C 286.789 77.575,286.340 78.223,285.795 78.741 C 285.249 79.258,284.893 79.828,285.004 80.006 C 285.115 80.185,285.014 80.395,284.781 80.473 C 284.547 80.551,284.313 80.908,284.261 81.267 C 284.208 81.626,283.970 82.162,283.731 82.460 C 283.493 82.757,283.178 83.391,283.032 83.868 C 282.772 84.719,282.671 85.171,282.111 88.000 C 281.750 89.829,281.762 96.212,282.132 98.000 C 282.605 100.295,284.461 105.153,285.051 105.643 C 285.353 105.893,285.600 106.337,285.600 106.629 C 285.600 107.299,293.129 114.800,293.803 114.800 C 294.077 114.800,294.521 115.064,294.789 115.387 C 295.057 115.710,295.394 115.943,295.538 115.905 C 295.682 115.867,296.370 116.140,297.067 116.511 C 319.446 128.441,344.399 105.043,333.765 82.100 C 329.943 73.854,319.170 66.628,310.960 66.803 C 310.322 66.817,309.035 66.722,308.100 66.594 C 307.165 66.465,306.399 66.504,306.398 66.680 M191.599 96.934 C 191.490 97.043,190.230 97.238,188.800 97.368 C 187.370 97.498,185.750 97.712,185.200 97.843 C 184.650 97.974,183.750 98.152,183.200 98.239 C 180.858 98.607,178.029 99.184,175.600 99.787 C 174.170 100.142,172.550 100.525,172.000 100.637 C 170.094 101.026,161.396 104.042,160.514 104.620 C 160.027 104.939,159.374 105.200,159.063 105.200 C 158.752 105.200,158.274 105.470,158.000 105.800 C 157.726 106.130,157.186 106.400,156.800 106.400 C 156.414 106.400,155.876 106.668,155.604 106.996 C 155.332 107.323,154.979 107.511,154.820 107.412 C 154.661 107.314,154.097 107.537,153.568 107.908 C 153.039 108.278,152.396 108.612,152.140 108.650 C 151.581 108.732,146.685 111.567,146.400 111.973 C 146.290 112.130,145.930 112.387,145.600 112.545 C 143.943 113.336,141.576 114.930,140.379 116.061 C 139.994 116.424,139.301 116.841,138.839 116.987 C 138.378 117.134,138.000 117.398,138.000 117.574 C 138.000 117.750,137.265 118.380,136.366 118.975 C 133.163 121.095,123.017 131.070,120.183 134.886 C 119.250 136.143,118.197 137.460,117.843 137.814 C 117.489 138.168,117.200 138.624,117.200 138.829 C 117.200 139.033,116.885 139.547,116.500 139.971 C 115.254 141.344,114.742 142.021,114.266 142.923 C 114.010 143.409,113.310 144.446,112.712 145.226 C 112.114 146.006,111.233 147.534,110.755 148.622 C 110.277 149.710,109.771 150.690,109.629 150.800 C 109.488 150.910,108.770 152.260,108.033 153.800 C 107.296 155.340,106.536 156.870,106.344 157.200 C 106.152 157.530,105.892 158.070,105.766 158.400 C 105.640 158.730,105.274 159.491,104.952 160.090 C 104.630 160.690,104.387 161.230,104.411 161.290 C 104.436 161.351,104.246 161.940,103.988 162.600 C 103.731 163.260,103.476 163.980,103.422 164.200 C 103.367 164.420,103.126 165.077,102.886 165.661 C 102.102 167.566,100.075 174.653,99.758 176.600 C 99.722 176.820,99.649 177.135,99.596 177.300 C 99.543 177.465,99.467 177.735,99.427 177.900 C 98.884 180.148,98.729 180.953,98.593 182.261 C 98.505 183.107,98.335 184.250,98.216 184.800 C 97.415 188.486,97.115 203.983,97.721 210.400 C 97.897 212.270,98.052 214.070,98.065 214.400 C 98.078 214.730,98.261 215.810,98.472 216.800 C 98.683 217.790,98.925 219.050,99.009 219.600 C 99.093 220.150,99.270 221.050,99.402 221.600 C 99.535 222.150,99.696 222.960,99.762 223.400 C 99.985 224.910,100.494 227.000,100.736 227.400 C 100.869 227.620,101.021 227.980,101.074 228.200 C 101.338 229.294,101.499 229.852,101.708 230.400 C 101.834 230.730,102.428 232.530,103.027 234.400 C 105.270 241.396,110.449 252.198,113.899 257.073 C 114.395 257.774,114.800 258.472,114.800 258.624 C 114.800 258.989,118.364 263.849,121.294 267.480 C 133.608 282.738,152.901 295.619,171.555 301.036 C 211.228 312.557,252.133 301.033,279.591 270.600 C 280.980 269.060,282.988 266.630,284.052 265.200 C 285.116 263.770,286.175 262.377,286.405 262.104 C 288.809 259.258,294.813 248.498,297.399 242.400 C 298.006 240.970,298.731 239.260,299.010 238.600 C 304.459 225.722,307.112 203.684,305.039 188.531 C 301.152 160.121,287.885 136.848,265.341 118.891 C 261.753 116.033,248.878 108.000,247.885 108.000 C 247.741 108.000,245.952 107.220,243.911 106.267 C 240.053 104.465,237.232 103.350,236.096 103.177 C 235.933 103.152,235.620 102.992,235.400 102.821 C 235.180 102.650,234.460 102.365,233.800 102.188 C 232.311 101.787,232.419 101.824,231.115 101.282 C 230.519 101.034,229.619 100.762,229.115 100.677 C 228.612 100.592,227.930 100.423,227.600 100.301 C 226.741 99.982,223.576 99.229,222.400 99.064 C 221.850 98.986,221.077 98.783,220.683 98.612 C 220.288 98.441,219.855 98.412,219.720 98.547 C 219.584 98.682,219.273 98.627,219.028 98.423 C 218.783 98.220,217.506 97.937,216.191 97.795 C 214.876 97.653,213.080 97.445,212.200 97.334 C 209.929 97.046,191.839 96.695,191.599 96.934 M210.354 134.034 C 226.490 136.681,238.279 142.482,248.200 152.659 C 252.888 157.468,253.317 157.956,254.216 159.500 C 254.632 160.215,255.087 160.800,255.226 160.800 C 255.550 160.800,258.111 164.823,258.242 165.535 C 258.295 165.829,258.623 166.384,258.970 166.767 C 259.316 167.150,259.600 167.674,259.600 167.931 C 259.600 168.189,259.791 168.400,260.024 168.400 C 260.257 168.400,260.336 168.580,260.200 168.800 C 260.064 169.020,260.154 169.200,260.400 169.200 C 260.646 169.200,260.736 169.380,260.600 169.600 C 260.464 169.820,260.513 170.000,260.710 170.000 C 260.906 170.000,261.075 170.225,261.084 170.500 C 261.094 170.775,261.512 171.900,262.013 173.000 C 262.514 174.100,262.979 175.276,263.046 175.614 C 263.114 175.951,263.480 176.941,263.860 177.814 C 264.240 178.686,264.573 179.490,264.599 179.600 C 264.626 179.710,264.787 180.565,264.959 181.500 C 265.130 182.435,265.418 183.200,265.598 183.200 C 265.778 183.200,265.831 183.560,265.716 184.000 C 265.601 184.440,265.663 184.800,265.853 184.800 C 266.044 184.800,266.217 185.205,266.238 185.700 C 266.258 186.195,266.490 187.832,266.751 189.337 C 267.779 195.249,267.864 203.245,266.964 209.400 C 266.868 210.060,266.734 211.059,266.667 211.620 C 266.601 212.181,266.405 212.868,266.233 213.147 C 266.061 213.425,266.013 213.746,266.126 213.859 C 266.239 213.973,266.075 214.681,265.761 215.433 C 265.446 216.185,265.274 216.800,265.377 216.800 C 265.480 216.800,265.306 217.532,264.991 218.426 C 264.675 219.320,264.445 220.175,264.478 220.326 C 264.512 220.477,264.348 221.050,264.114 221.600 C 263.879 222.150,263.379 223.410,263.003 224.400 C 262.626 225.390,262.156 226.513,261.959 226.895 C 261.762 227.277,261.600 227.862,261.600 228.195 C 261.600 228.528,261.420 228.800,261.200 228.800 C 260.980 228.800,260.800 229.160,260.800 229.600 C 260.800 230.040,260.620 230.400,260.400 230.400 C 260.180 230.400,260.000 230.634,260.000 230.920 C 260.000 231.206,259.775 231.665,259.500 231.940 C 259.225 232.215,258.998 232.566,258.995 232.720 C 258.992 232.874,258.399 233.855,257.676 234.900 C 256.953 235.945,256.473 236.800,256.609 236.800 C 256.746 236.800,256.619 237.041,256.329 237.337 C 255.499 238.179,254.044 240.159,253.931 240.600 C 253.727 241.392,243.553 252.000,242.997 252.000 C 242.755 252.000,242.059 252.531,240.771 253.700 C 240.347 254.085,240.000 254.279,240.000 254.130 C 240.000 253.982,239.595 254.229,239.100 254.680 C 238.605 255.131,237.750 255.731,237.200 256.012 C 236.650 256.294,235.594 256.984,234.853 257.546 C 234.112 258.107,233.230 258.607,232.893 258.657 C 232.556 258.706,232.172 258.916,232.040 259.122 C 231.692 259.666,226.852 262.044,225.648 262.262 C 225.085 262.364,224.394 262.639,224.112 262.873 C 223.831 263.107,223.600 263.164,223.600 263.000 C 223.600 262.836,223.330 262.926,223.000 263.200 C 222.670 263.474,222.400 263.564,222.400 263.400 C 222.400 263.236,222.130 263.326,221.800 263.600 C 221.470 263.874,221.200 263.980,221.200 263.835 C 221.200 263.690,220.795 263.795,220.300 264.067 C 219.368 264.579,219.198 264.633,217.710 264.892 C 217.221 264.977,216.708 265.158,216.571 265.295 C 216.434 265.433,216.088 265.455,215.801 265.345 C 215.515 265.235,215.167 265.330,215.028 265.555 C 214.888 265.781,214.510 265.864,214.187 265.740 C 213.864 265.616,213.600 265.675,213.600 265.872 C 213.600 266.068,213.009 266.209,212.287 266.185 C 211.566 266.161,209.929 266.351,208.650 266.606 C 205.869 267.161,189.400 266.984,189.400 266.399 C 189.400 266.363,189.040 266.287,188.600 266.231 C 188.160 266.175,187.170 265.975,186.400 265.787 C 185.630 265.599,184.730 265.432,184.400 265.416 C 184.070 265.401,183.607 265.265,183.372 265.115 C 183.137 264.965,182.422 264.747,181.783 264.631 C 180.620 264.420,178.455 263.633,173.604 261.657 C 172.176 261.076,170.871 260.645,170.704 260.700 C 170.537 260.755,170.400 260.609,170.400 260.376 C 170.400 260.143,170.220 260.064,170.000 260.200 C 169.780 260.336,169.600 260.246,169.600 260.000 C 169.600 259.754,169.420 259.664,169.200 259.800 C 168.980 259.936,168.800 259.857,168.800 259.624 C 168.800 259.391,168.589 259.200,168.331 259.200 C 168.074 259.200,167.550 258.916,167.167 258.570 C 166.784 258.223,166.229 257.895,165.935 257.842 C 165.223 257.711,161.200 255.150,161.200 254.826 C 161.200 254.687,160.615 254.231,159.900 253.813 C 158.532 253.014,156.854 251.606,155.478 250.100 C 155.026 249.605,154.418 249.200,154.128 249.200 C 153.838 249.200,153.597 249.065,153.594 248.900 C 153.591 248.735,152.466 247.416,151.094 245.969 C 148.665 243.407,146.000 240.220,146.000 239.876 C 146.000 239.783,145.167 238.467,144.149 236.953 C 130.941 217.308,130.630 188.420,143.394 166.968 C 157.155 143.842,185.413 129.943,210.354 134.034 " stroke="none" fill="#24343c" fill-rule="evenodd"></path><path id="path1" d="M35.775 28.900 L 34.600 30.200 35.900 29.025 C 36.615 28.379,37.200 27.794,37.200 27.725 C 37.200 27.416,36.870 27.688,35.775 28.900 M208.500 97.076 C 208.885 97.176,209.515 97.176,209.900 97.076 C 210.285 96.975,209.970 96.893,209.200 96.893 C 208.430 96.893,208.115 96.975,208.500 97.076 M228.700 260.625 C 227.215 261.387,226.000 262.101,226.000 262.211 C 226.000 262.389,231.560 259.727,231.967 259.353 C 232.514 258.851,231.037 259.425,228.700 260.625 " stroke="none" fill="#28343c" fill-rule="evenodd"></path><path id="path2" d="M35.775 28.900 L 34.600 30.200 35.900 29.025 C 36.615 28.379,37.200 27.794,37.200 27.725 C 37.200 27.416,36.870 27.688,35.775 28.900 M208.500 97.076 C 208.885 97.176,209.515 97.176,209.900 97.076 C 210.285 96.975,209.970 96.893,209.200 96.893 C 208.430 96.893,208.115 96.975,208.500 97.076 M228.700 260.625 C 227.215 261.387,226.000 262.101,226.000 262.211 C 226.000 262.389,231.560 259.727,231.967 259.353 C 232.514 258.851,231.037 259.425,228.700 260.625 " stroke="none" fill="#28343c" fill-rule="evenodd"></path><path id="path3" d="M35.775 28.900 L 34.600 30.200 35.900 29.025 C 36.615 28.379,37.200 27.794,37.200 27.725 C 37.200 27.416,36.870 27.688,35.775 28.900 M208.500 97.076 C 208.885 97.176,209.515 97.176,209.900 97.076 C 210.285 96.975,209.970 96.893,209.200 96.893 C 208.430 96.893,208.115 96.975,208.500 97.076 M228.700 260.625 C 227.215 261.387,226.000 262.101,226.000 262.211 C 226.000 262.389,231.560 259.727,231.967 259.353 C 232.514 258.851,231.037 259.425,228.700 260.625 " stroke="none" fill="#28343c" fill-rule="evenodd"></path><path id="path4" d="M35.775 28.900 L 34.600 30.200 35.900 29.025 C 36.615 28.379,37.200 27.794,37.200 27.725 C 37.200 27.416,36.870 27.688,35.775 28.900 M208.500 97.076 C 208.885 97.176,209.515 97.176,209.900 97.076 C 210.285 96.975,209.970 96.893,209.200 96.893 C 208.430 96.893,208.115 96.975,208.500 97.076 M228.700 260.625 C 227.215 261.387,226.000 262.101,226.000 262.211 C 226.000 262.389,231.560 259.727,231.967 259.353 C 232.514 258.851,231.037 259.425,228.700 260.625 " stroke="none" fill="#28343c" fill-rule="evenodd"></path></g></svg>