<svg xmlns="http://www.w3.org/2000/svg" width="30" height="30" viewBox="0 0 30 30">
  <defs>
    <style>
      .cls-1 {
        fill: #fff;
        fill-rule: evenodd;
      }
    </style>
  </defs>
  <path id="Фигура_96" data-name="Фигура 96" class="cls-1" d="M995.334,3273.52a0.5,0.5,0,0,1-.344-0.13l-2.895-2.72a0.5,0.5,0,1,1,.689-0.73l2.894,2.71a0.5,0.5,0,0,1,.023.71A0.487,0.487,0,0,1,995.334,3273.52Zm-9.662,0a0.487,0.487,0,0,1-.367-0.16,0.5,0.5,0,0,1,.023-0.71l2.9-2.71a0.5,0.5,0,1,1,.688.73l-2.9,2.72A0.5,0.5,0,0,1,985.672,3273.52Zm11.262,2.53H984.073a1.624,1.624,0,0,1-1.621-1.62v-8.36a1.624,1.624,0,0,1,1.621-1.62h12.861a1.624,1.624,0,0,1,1.621,1.62v8.36A1.624,1.624,0,0,1,996.934,3276.05Zm-12.861-10.59a0.617,0.617,0,0,0-.615.61v8.36a0.611,0.611,0,0,0,.615.61h12.861a0.61,0.61,0,0,0,.614-0.61v-8.36a0.617,0.617,0,0,0-.614-0.61H984.073Zm6.43,6.27a1.819,1.819,0,0,1-1.173-.43l-6.375-5.56a0.5,0.5,0,0,1,.662-0.76l6.375,5.56a0.817,0.817,0,0,0,1.023,0l6.366-5.55a0.5,0.5,0,0,1,.71.05,0.5,0.5,0,0,1-.049.71l-6.366,5.55A1.819,1.819,0,0,1,990.5,3271.73Zm0,13.52a15,15,0,1,1,15-15,14.786,14.786,0,0,1-1.33,6.19,0.494,0.494,0,0,1-.67.25,0.5,0.5,0,0,1-.25-0.66,13.851,13.851,0,0,0,1.25-5.78,14,14,0,1,0-14,14A0.5,0.5,0,1,1,990.5,3285.25Zm0,0a0.5,0.5,0,1,1,0-1c4.313,0,6.645-1.72,7.389-3.32a2.558,2.558,0,0,0-.333-2.83,0.5,0.5,0,0,1,.059-0.71,0.5,0.5,0,0,1,.709.06,3.523,3.523,0,0,1,.478,3.9C997.93,3283.24,995.29,3285.25,990.5,3285.25Z" transform="translate(-975.5 -3255.25)"/>
</svg>
