<svg id="svg" version="1.1" xmlns="http://www.w3.org/2000/svg" xmlns:xlink="http://www.w3.org/1999/xlink" width="400" height="400" viewBox="0, 0, 400,400"><g id="svgg"><path id="path0" d="M187.200 1.208 C 154.341 3.955,127.266 12.129,101.000 27.234 C 82.438 37.909,61.168 55.343,50.032 69.012 C 49.499 69.665,48.210 71.143,47.166 72.295 C 40.224 79.958,29.048 96.836,22.729 109.200 C -15.564 184.127,-3.485 273.477,53.389 336.000 C 59.427 342.638,70.481 352.661,80.000 360.129 C 109.199 383.038,153.584 399.027,190.200 399.828 C 196.405 399.964,198.339 399.900,197.600 399.582 C 191.064 396.770,192.915 387.194,199.993 387.203 C 206.898 387.211,208.906 396.633,202.600 399.435 C 198.245 401.371,224.027 399.541,237.102 396.987 C 295.721 385.536,330.290 342.183,310.531 304.902 L 308.783 301.604 310.891 298.832 C 316.312 291.709,319.967 282.969,320.667 275.460 C 321.470 266.843,313.599 252.667,304.400 246.162 C 303.190 245.307,301.930 244.312,301.600 243.952 C 293.309 234.903,273.840 226.939,264.128 228.625 C 255.707 230.086,247.967 234.387,242.000 240.920 C 240.790 242.245,238.946 244.225,237.901 245.320 L 236.003 247.311 233.532 247.087 C 228.619 246.642,215.213 238.525,206.961 231.000 C 206.720 230.780,205.280 229.522,203.761 228.204 C 179.902 207.506,156.261 179.626,153.664 169.123 C 152.571 164.704,152.718 164.339,157.568 159.425 C 177.046 139.693,176.953 126.169,157.158 99.779 C 147.884 87.414,140.677 82.240,129.604 79.996 C 119.157 77.879,101.390 86.269,93.508 97.041 C 93.009 97.724,91.041 99.974,89.136 102.042 C 83.858 107.769,82.681 109.541,81.192 114.000 C 75.288 131.679,82.661 162.452,99.689 191.200 C 100.667 192.850,102.061 195.280,102.787 196.600 C 108.427 206.846,122.246 226.009,131.343 236.200 C 177.422 287.818,233.132 321.262,272.920 321.191 C 282.303 321.175,294.600 316.416,297.320 311.749 C 297.862 310.818,298.270 311.126,299.111 313.100 C 312.552 344.646,277.409 378.450,224.400 384.966 C 178.398 390.620,134.135 380.211,96.274 354.836 C 93.454 352.946,90.852 351.220,90.490 351.000 C 90.129 350.780,89.631 350.420,89.382 350.200 C 89.134 349.980,87.527 348.720,85.812 347.400 C 75.409 339.396,60.194 324.371,54.216 316.200 C 53.572 315.320,52.842 314.420,52.592 314.200 C 50.994 312.790,40.936 297.545,37.213 290.891 C 9.375 241.127,6.058 180.885,28.238 127.917 C 35.449 110.696,47.729 90.832,58.727 78.600 C 72.861 62.880,85.322 52.173,100.600 42.623 C 103.020 41.110,105.450 39.590,106.000 39.245 C 106.550 38.900,107.900 38.116,109.000 37.503 C 154.542 12.121,207.919 6.852,257.200 22.874 C 259.950 23.768,262.380 24.539,262.600 24.588 C 262.820 24.637,263.540 24.902,264.200 25.176 C 264.860 25.451,266.750 26.178,268.400 26.792 C 280.308 31.226,295.413 39.453,308.000 48.361 C 378.587 98.317,405.549 192.040,372.163 271.408 C 368.506 280.103,368.583 283.146,372.520 285.537 C 377.654 288.654,380.951 286.477,384.740 277.469 C 404.021 231.628,405.140 179.008,387.843 131.476 C 387.058 129.319,386.154 126.979,385.835 126.276 C 385.515 125.574,384.500 123.200,383.578 121.000 C 372.657 94.942,349.157 63.194,329.800 48.348 C 329.140 47.842,328.510 47.331,328.400 47.214 C 327.124 45.850,316.368 37.730,311.600 34.531 C 303.615 29.174,289.043 21.146,282.386 18.436 C 281.624 18.126,279.863 17.357,278.472 16.728 C 253.166 5.275,215.390 -1.148,187.200 1.208 M129.200 94.113 C 135.849 96.395,140.675 100.476,147.046 109.205 C 162.065 129.780,162.181 134.680,148.000 149.404 C 140.352 157.344,139.525 158.769,139.279 164.438 C 138.947 172.068,142.761 181.369,150.582 192.000 C 151.472 193.210,152.332 194.380,152.493 194.600 C 168.647 216.659,204.771 249.722,221.295 257.573 C 234.368 263.784,241.476 262.134,251.930 250.463 C 257.046 244.751,264.804 241.150,269.594 242.263 C 277.896 244.194,285.600 248.130,291.689 253.552 C 293.168 254.869,295.165 256.488,296.128 257.150 C 300.290 260.014,304.521 265.994,306.260 271.471 L 307.243 274.565 306.189 277.983 C 303.878 285.474,300.258 290.655,292.621 297.400 C 290.877 298.940,288.629 300.963,287.625 301.896 C 275.657 313.016,242.512 305.635,208.600 284.296 C 204.302 281.592,197.331 276.993,196.000 275.984 C 195.230 275.400,192.446 273.325,189.813 271.373 C 136.295 231.685,93.182 168.147,93.072 128.800 C 93.048 119.994,93.996 117.257,98.947 111.835 C 100.678 109.939,102.463 107.896,102.913 107.294 C 109.799 98.099,122.401 91.780,129.200 94.113 M302.481 294.997 C 303.714 295.834,306.666 299.253,307.760 301.111 C 308.097 301.684,305.816 304.002,301.526 307.446 C 300.055 308.627,298.740 309.774,298.603 309.996 C 298.370 310.371,295.100 305.959,293.478 303.081 C 290.562 297.907,297.541 291.640,302.481 294.997 " stroke="none" fill="#1c3444" fill-rule="evenodd"></path><path id="path1" d="" stroke="none" fill="#1c344c" fill-rule="evenodd"></path><path id="path2" d="" stroke="none" fill="#203444" fill-rule="evenodd"></path></g></svg>