<svg id="svg" version="1.1" xmlns="http://www.w3.org/2000/svg" xmlns:xlink="http://www.w3.org/1999/xlink" width="400" height="400" viewBox="0, 0, 400,400"><g id="svgg"><path id="path0" d="M187.600 0.674 C 104.208 5.432,31.216 63.745,7.942 144.200 C -27.357 266.225,58.015 389.261,185.000 399.370 C 204.595 400.930,230.583 398.865,245.564 394.558 C 296.929 379.790,324.106 347.039,313.740 312.400 C 311.003 303.256,300.362 288.365,285.499 272.879 C 280.637 267.813,275.467 267.784,272.900 272.808 C 270.951 276.623,271.826 278.753,278.252 285.830 C 280.863 288.706,283.720 291.936,284.600 293.008 C 285.480 294.080,286.745 295.596,287.411 296.378 C 302.473 314.056,305.550 326.675,298.401 341.445 C 274.393 391.046,175.920 400.885,106.600 360.610 C 0.979 299.244,-18.022 154.776,68.192 68.594 C 155.221 -18.403,302.106 1.673,362.306 108.794 C 390.625 159.186,393.982 217.049,371.756 271.681 C 368.190 280.447,368.358 283.335,372.580 285.810 C 377.374 288.619,380.611 286.351,384.399 277.527 C 402.579 235.178,404.969 185.017,390.934 140.400 C 363.298 52.545,280.129 -4.606,187.600 0.674 M189.000 74.211 C 131.046 81.027,92.901 140.052,112.102 193.200 C 119.546 213.807,134.555 241.005,153.488 268.200 C 176.696 301.535,195.009 324.462,198.870 325.014 C 203.324 325.652,207.228 321.517,226.906 295.322 C 234.557 285.137,238.841 279.211,246.511 268.200 C 260.728 247.789,276.321 221.137,282.198 207.200 C 282.708 205.990,283.747 203.560,284.507 201.800 C 292.248 183.862,294.497 169.715,292.168 153.600 C 284.919 103.429,239.266 68.299,189.000 74.211 M211.000 89.447 C 248.330 94.623,277.174 126.052,279.054 163.600 C 280.394 190.360,256.682 234.149,204.600 301.093 C 199.405 307.770,200.236 307.414,197.580 304.100 C 177.464 279.003,154.192 245.584,142.154 224.509 C 121.082 187.619,116.832 168.723,124.229 144.800 C 135.784 107.429,172.368 84.091,211.000 89.447 M191.509 123.592 C 145.926 133.203,142.157 196.150,186.298 210.624 C 198.860 214.743,217.063 212.007,225.667 204.705 C 226.254 204.207,227.662 203.080,228.796 202.200 C 244.498 190.016,249.411 165.523,239.865 147.015 C 230.876 129.586,210.315 119.627,191.509 123.592 M206.400 137.412 C 232.148 143.360,239.832 175.488,219.420 191.856 C 199.788 207.599,170.375 194.515,168.922 169.393 C 167.760 149.302,186.957 132.921,206.400 137.412 M200.395 386.412 C 199.930 386.705,200.019 386.789,200.800 386.795 C 203.447 386.816,205.996 389.779,205.999 392.841 C 206.003 397.919,200.243 400.709,196.246 397.565 C 192.362 394.510,193.758 387.868,198.483 386.923 C 199.090 386.802,199.512 386.582,199.421 386.434 C 199.330 386.287,199.646 386.137,200.123 386.101 C 200.810 386.049,200.866 386.114,200.395 386.412 " stroke="none" fill="#1c3444" fill-rule="evenodd"></path><path id="path1" d="" stroke="none" fill="#203444" fill-rule="evenodd"></path><path id="path2" d="" stroke="none" fill="#203444" fill-rule="evenodd"></path></g></svg>