<?xml version="1.0" encoding="utf-8"?>
<!-- Generator: Adobe Illustrator 19.2.1, SVG Export Plug-In . SVG Version: 6.00 Build 0)  -->
<svg version="1.1" id="Layer_1" xmlns="http://www.w3.org/2000/svg" xmlns:xlink="http://www.w3.org/1999/xlink" x="0px" y="0px"
	 viewBox="0 0 55 59.6" style="enable-background:new 0 0 55 59.6;" xml:space="preserve">
<style type="text/css">
	.st0{fill:#EDF0F1;stroke:#010101;stroke-width:2;stroke-miterlimit:10;}
	.st1{fill:none;stroke:#231F20;stroke-width:2;stroke-linecap:round;stroke-miterlimit:10;}
	.st2{fill:#F0C419;}
	.st3{fill:#E64D3C;}
	.st4{fill:#BDC3C7;}
	.st5{fill:#010101;}
	.st6{fill:none;stroke:#010101;stroke-width:2;stroke-miterlimit:10;}
</style>
<rect x="1" y="1" class="st0" width="39" height="48.8"/>
<g>
	<line class="st1" x1="18.9" y1="10.8" x2="27.1" y2="10.8"/>
	<line class="st1" x1="5.9" y1="5.9" x2="34.6" y2="5.9"/>
	<line class="st1" x1="5.9" y1="10.8" x2="14.1" y2="10.8"/>
	<line class="st1" x1="5.9" y1="15.7" x2="27.1" y2="15.7"/>
</g>
<g>
	<g>
		<path class="st2" d="M9.9,50.6l38-38l5.9,5.9l-38,38c-1.9,0.3-5.4,1-7.3,1.4C8.9,55.9,9.9,50.6,9.9,50.6z"/>
		<rect x="45.1" y="15" transform="matrix(0.7071 0.7071 -0.7071 0.7071 26.5964 -29.779)" class="st3" width="8.4" height="4.5"/>
		<polygon class="st4" points="9.9,50.6 15.8,56.6 8.5,58 		"/>
		<polygon class="st5" points="8.5,58 11.8,57.3 9.1,54.7 		"/>
	</g>
	<path class="st6" d="M9.7,50.9l38-38l5.9,5.9l-38,38c-1.9,0.3-5.4,1-7.3,1.4C8.6,56.1,9.7,50.9,9.7,50.9z"/>
</g>
</svg>
