<svg id="svg" version="1.1" xmlns="http://www.w3.org/2000/svg" xmlns:xlink="http://www.w3.org/1999/xlink" width="400" height="288.8888888888889" viewBox="0, 0, 400,288.8888888888889"><g id="svgg"><path id="path0" d="M199.104 0.125 C 199.035 0.195,198.416 0.319,197.728 0.402 C 197.040 0.485,196.308 0.693,196.101 0.865 C 195.893 1.037,195.427 1.235,195.065 1.305 C 193.614 1.584,188.728 5.398,188.728 6.251 C 188.728 6.469,188.598 6.647,188.439 6.647 C 188.280 6.647,188.150 6.842,188.150 7.081 C 188.150 7.319,188.034 7.514,187.893 7.514 C 187.751 7.514,187.546 7.872,187.437 8.309 C 187.327 8.746,187.032 9.332,186.781 9.612 C 186.529 9.891,186.408 10.204,186.512 10.308 C 186.615 10.411,186.554 10.672,186.375 10.887 C 185.602 11.819,185.420 18.787,186.127 20.376 C 186.339 20.853,186.532 21.308,186.557 21.387 C 186.621 21.593,187.296 23.140,187.678 23.956 C 189.794 28.475,196.308 32.103,202.673 32.309 L 206.358 32.428 206.336 129.726 C 206.323 183.239,206.238 226.828,206.148 226.590 C 206.057 226.351,205.901 226.091,205.802 226.012 C 205.702 225.932,205.173 225.282,204.625 224.566 C 203.657 223.303,202.697 222.167,201.662 221.061 C 201.384 220.763,201.246 220.520,201.355 220.520 C 201.465 220.520,201.302 220.273,200.994 219.971 C 200.686 219.669,200.108 218.990,199.711 218.463 C 199.314 217.936,198.761 217.273,198.483 216.990 C 198.204 216.706,197.977 216.405,197.977 216.320 C 197.977 216.235,197.615 215.812,197.174 215.380 C 196.732 214.949,196.357 214.485,196.339 214.351 C 196.309 214.110,194.560 211.949,193.569 210.926 C 193.291 210.639,193.064 210.304,193.064 210.180 C 193.064 210.056,192.697 209.634,192.249 209.241 C 191.801 208.848,191.426 208.416,191.415 208.281 C 191.396 208.050,189.694 205.930,188.706 204.907 C 188.456 204.648,188.167 204.218,188.065 203.952 C 187.963 203.686,187.745 203.468,187.581 203.468 C 187.417 203.468,187.283 203.273,187.283 203.035 C 187.283 202.796,187.080 202.601,186.833 202.601 C 186.585 202.601,186.449 202.493,186.530 202.362 C 186.611 202.230,186.294 201.702,185.825 201.188 C 185.355 200.674,184.971 200.158,184.971 200.041 C 184.971 199.924,184.586 199.509,184.116 199.119 C 183.646 198.729,183.256 198.244,183.249 198.040 C 183.243 197.836,183.042 197.595,182.803 197.503 C 182.565 197.412,182.370 197.156,182.370 196.934 C 182.370 196.713,182.167 196.532,181.919 196.532 C 181.672 196.532,181.535 196.424,181.617 196.292 C 181.698 196.161,181.381 195.632,180.911 195.118 C 180.442 194.604,180.058 194.091,180.058 193.977 C 180.058 193.863,179.691 193.449,179.243 193.056 C 178.795 192.663,178.419 192.232,178.406 192.100 C 178.380 191.827,177.114 190.216,175.984 189.017 C 175.571 188.580,175.153 188.010,175.054 187.752 C 174.955 187.494,174.739 187.283,174.576 187.283 C 174.412 187.283,174.277 187.154,174.277 186.996 C 174.277 186.731,173.906 186.239,172.399 184.509 C 172.081 184.144,171.496 183.420,171.098 182.901 C 170.701 182.381,170.148 181.724,169.870 181.440 C 169.592 181.157,169.364 180.861,169.364 180.783 C 169.364 180.630,168.387 179.430,167.558 178.563 C 167.280 178.273,167.052 177.958,167.052 177.864 C 167.052 177.710,166.361 176.896,164.957 175.396 C 164.678 175.099,164.426 174.758,164.395 174.639 C 164.364 174.520,164.231 174.292,164.100 174.133 C 163.969 173.974,163.637 173.564,163.362 173.223 C 162.231 171.818,160.517 169.797,160.043 169.308 C 159.765 169.021,159.545 168.714,159.555 168.627 C 159.573 168.461,157.746 166.177,156.864 165.264 C 156.586 164.976,156.358 164.670,156.358 164.586 C 156.358 164.501,155.936 164.018,155.419 163.513 C 154.902 163.008,154.527 162.545,154.585 162.484 C 154.685 162.377,153.015 160.291,151.951 159.192 C 151.673 158.905,151.445 158.604,151.445 158.522 C 151.445 158.398,150.427 157.099,148.477 154.734 C 148.281 154.497,147.796 153.949,147.399 153.516 C 147.001 153.083,146.632 152.603,146.577 152.448 C 146.480 152.174,144.867 150.187,143.858 149.100 C 143.580 148.800,143.353 148.454,143.353 148.330 C 143.353 148.207,142.957 147.758,142.473 147.333 C 141.989 146.909,141.631 146.512,141.678 146.453 C 141.763 146.345,139.905 144.004,138.945 143.009 C 138.667 142.721,138.439 142.384,138.439 142.261 C 138.439 142.137,138.043 141.689,137.559 141.264 C 137.075 140.839,136.699 140.409,136.722 140.308 C 136.769 140.106,135.542 138.531,134.365 137.283 C 133.953 136.846,133.534 136.276,133.435 136.018 C 133.336 135.760,133.121 135.549,132.957 135.549 C 132.793 135.549,132.659 135.354,132.659 135.116 C 132.659 134.877,132.464 134.682,132.225 134.682 C 131.987 134.682,131.792 134.506,131.792 134.291 C 131.792 134.076,131.467 133.549,131.069 133.120 C 130.672 132.691,130.347 132.243,130.347 132.125 C 130.347 132.006,129.962 131.590,129.492 131.200 C 129.022 130.810,128.632 130.325,128.625 130.121 C 128.618 129.917,128.418 129.676,128.179 129.584 C 127.941 129.493,127.746 129.237,127.746 129.015 C 127.746 128.794,127.551 128.613,127.312 128.613 C 127.074 128.613,126.879 128.437,126.879 128.221 C 126.879 128.006,126.553 127.479,126.156 127.050 C 125.759 126.622,125.434 126.176,125.434 126.061 C 125.434 125.946,125.038 125.504,124.554 125.079 C 124.070 124.654,123.677 124.203,123.682 124.075 C 123.687 123.948,123.302 123.432,122.828 122.930 C 122.353 122.427,121.965 121.940,121.965 121.848 C 121.965 121.674,121.038 120.522,120.159 119.604 C 119.881 119.313,119.653 118.945,119.653 118.786 C 119.653 118.627,119.458 118.497,119.220 118.497 C 118.981 118.497,118.786 118.331,118.786 118.128 C 118.786 117.925,118.396 117.332,117.919 116.810 C 117.442 116.287,117.052 115.786,117.052 115.694 C 117.052 115.603,116.752 115.251,116.386 114.911 C 116.019 114.572,115.633 114.069,115.528 113.794 C 115.422 113.520,115.202 113.295,115.038 113.295 C 114.874 113.295,114.740 113.100,114.740 112.861 C 114.740 112.623,114.577 112.428,114.377 112.428 C 114.177 112.428,113.849 112.055,113.647 111.599 C 113.445 111.143,112.713 110.170,112.019 109.435 C 111.326 108.701,110.683 107.904,110.591 107.663 C 110.498 107.422,110.289 107.225,110.125 107.225 C 109.961 107.225,109.827 107.026,109.827 106.783 C 109.827 106.539,109.632 106.265,109.393 106.174 C 109.155 106.082,108.960 105.892,108.960 105.752 C 108.960 105.505,108.379 104.757,107.009 103.238 C 106.651 102.841,106.358 102.398,106.358 102.253 C 106.358 102.108,106.228 102.069,106.069 102.168 C 105.910 102.266,105.780 102.139,105.780 101.887 C 105.780 101.634,105.585 101.352,105.347 101.261 C 105.108 101.169,104.911 100.946,104.909 100.764 C 104.906 100.582,104.510 99.978,104.028 99.422 C 101.983 97.062,101.734 96.752,101.734 96.561 C 101.734 96.450,101.349 96.041,100.879 95.651 C 100.409 95.261,100.019 94.808,100.012 94.643 C 100.000 94.334,98.998 93.054,97.616 91.579 C 97.178 91.113,96.821 90.612,96.821 90.467 C 96.821 90.321,96.646 90.098,96.432 89.971 C 96.219 89.844,95.666 89.215,95.204 88.573 C 94.273 87.280,93.872 86.791,92.702 85.523 C 92.265 85.050,91.907 84.569,91.906 84.455 C 91.905 84.342,91.483 83.771,90.967 83.188 C 89.286 81.288,88.728 80.590,88.728 80.387 C 88.728 80.277,88.359 79.862,87.908 79.466 C 87.456 79.070,87.034 78.601,86.968 78.424 C 86.838 78.072,85.124 75.910,84.321 75.085 C 84.043 74.800,83.815 74.463,83.815 74.336 C 83.815 74.209,83.430 73.787,82.960 73.397 C 82.490 73.007,82.100 72.553,82.093 72.389 C 82.081 72.079,81.079 70.799,79.697 69.325 C 79.259 68.859,78.902 68.348,78.902 68.189 C 78.902 68.031,78.707 67.826,78.468 67.735 C 78.230 67.643,78.035 67.463,78.035 67.335 C 78.035 67.110,77.295 66.153,76.228 64.999 C 75.950 64.697,75.723 64.347,75.723 64.221 C 75.723 64.094,75.338 63.671,74.868 63.281 C 74.398 62.891,74.007 62.406,74.001 62.202 C 73.994 61.998,73.793 61.757,73.555 61.665 C 73.316 61.574,73.121 61.394,73.121 61.265 C 73.121 61.041,72.381 60.084,71.315 58.929 C 71.037 58.628,70.809 58.280,70.809 58.157 C 70.809 58.033,70.440 57.608,69.989 57.212 C 69.537 56.816,69.114 56.350,69.049 56.176 C 68.890 55.751,67.669 54.179,66.691 53.138 C 66.254 52.673,65.896 52.163,65.896 52.004 C 65.896 51.846,65.701 51.641,65.462 51.550 C 65.224 51.458,65.029 51.231,65.029 51.045 C 65.029 50.859,64.801 50.509,64.523 50.267 C 64.245 50.026,63.692 49.398,63.295 48.871 C 62.897 48.345,62.215 47.533,61.777 47.068 C 61.340 46.603,60.983 46.093,60.983 45.935 C 60.983 45.776,60.788 45.572,60.549 45.480 C 60.311 45.389,60.114 45.165,60.112 44.984 C 60.110 44.802,59.590 44.095,58.956 43.412 C 58.322 42.730,57.803 42.043,57.803 41.886 C 57.803 41.729,57.613 41.527,57.381 41.438 C 57.149 41.349,56.879 41.026,56.782 40.721 C 56.685 40.415,56.485 40.240,56.338 40.331 C 56.190 40.422,56.069 40.290,56.069 40.037 C 56.069 39.784,55.874 39.502,55.636 39.411 C 55.397 39.319,55.202 39.090,55.202 38.901 C 55.202 38.713,54.682 38.000,54.046 37.318 C 53.410 36.637,52.890 35.988,52.890 35.878 C 52.890 35.768,52.663 35.463,52.384 35.200 C 52.106 34.938,51.747 34.551,51.587 34.341 C 49.612 31.756,48.360 30.208,47.616 29.430 C 47.337 29.140,47.110 28.778,47.110 28.627 C 47.110 28.476,46.940 28.248,46.733 28.121 C 46.525 27.994,45.977 27.370,45.515 26.734 C 45.053 26.098,44.475 25.357,44.231 25.086 C 43.986 24.816,43.654 24.425,43.492 24.219 C 43.330 24.013,40.662 20.658,37.563 16.763 C 34.464 12.868,31.244 8.815,30.408 7.754 C 25.500 1.527,19.021 -0.986,12.342 0.745 C -0.461 4.062,-4.160 18.684,5.279 28.669 C 5.475 28.876,6.290 29.904,7.089 30.952 C 7.889 32.001,8.955 33.366,9.460 33.987 C 9.964 34.608,12.374 37.654,14.816 40.757 C 17.257 43.859,19.465 46.655,19.722 46.971 C 19.980 47.286,20.985 48.556,21.957 49.794 C 22.928 51.032,23.904 52.267,24.124 52.539 C 24.345 52.812,25.320 54.047,26.292 55.285 C 27.263 56.523,28.242 57.758,28.466 58.031 C 28.690 58.303,30.871 61.064,33.313 64.167 C 35.754 67.270,37.962 70.066,38.220 70.381 C 38.477 70.696,39.482 71.966,40.454 73.204 C 41.425 74.442,42.401 75.677,42.621 75.950 C 42.842 76.222,43.817 77.458,44.789 78.696 C 45.761 79.933,46.739 81.169,46.963 81.441 C 47.187 81.714,50.341 85.708,53.973 90.318 C 57.604 94.928,60.788 98.960,61.047 99.277 C 61.307 99.595,62.314 100.868,63.286 102.106 C 64.258 103.344,65.234 104.579,65.456 104.852 C 65.677 105.124,68.849 109.139,72.504 113.774 C 76.160 118.408,79.345 122.440,79.583 122.733 C 79.822 123.026,80.811 124.279,81.783 125.516 C 82.755 126.754,83.730 127.990,83.951 128.262 C 84.171 128.534,85.147 129.770,86.118 131.008 C 87.090 132.245,88.068 133.481,88.292 133.753 C 88.516 134.026,90.697 136.787,93.139 139.890 C 95.581 142.992,97.789 145.788,98.046 146.103 C 98.303 146.419,99.309 147.689,100.280 148.927 C 101.252 150.164,102.227 151.400,102.448 151.672 C 102.668 151.945,103.644 153.180,104.615 154.418 C 105.587 155.656,106.565 156.891,106.789 157.164 C 107.013 157.436,110.168 161.431,113.799 166.040 C 117.431 170.650,120.614 174.682,120.874 175.000 C 121.133 175.318,122.141 176.591,123.113 177.828 C 124.084 179.066,125.061 180.302,125.282 180.574 C 125.504 180.847,128.676 184.861,132.331 189.496 C 135.986 194.131,139.172 198.163,139.410 198.456 C 139.648 198.749,140.638 200.001,141.610 201.239 C 142.581 202.477,143.557 203.712,143.777 203.985 C 143.998 204.257,144.973 205.492,145.945 206.730 C 146.917 207.968,147.895 209.203,148.119 209.476 C 148.343 209.748,150.524 212.510,152.966 215.612 C 155.408 218.715,157.616 221.511,157.873 221.826 C 158.130 222.141,159.135 223.412,160.107 224.649 C 161.078 225.887,162.054 227.123,162.274 227.395 C 162.495 227.667,163.470 228.903,164.442 230.141 C 165.414 231.378,166.392 232.614,166.616 232.886 C 166.840 233.159,169.021 235.920,171.463 239.023 C 173.905 242.125,176.113 244.921,176.370 245.236 C 176.627 245.551,177.632 246.822,178.604 248.060 C 179.576 249.297,180.551 250.533,180.772 250.805 C 180.992 251.078,181.968 252.313,182.939 253.551 C 183.911 254.789,184.889 256.024,185.113 256.297 C 185.337 256.569,188.492 260.564,192.123 265.173 C 195.754 269.783,198.938 273.815,199.198 274.133 C 199.457 274.451,200.465 275.724,201.436 276.961 C 202.408 278.199,203.382 279.435,203.600 279.707 C 203.819 279.979,205.570 282.186,207.491 284.610 L 210.985 289.017 223.830 289.017 L 236.676 289.017 237.387 288.078 C 238.070 287.176,239.107 285.082,239.929 282.948 C 240.248 282.119,240.344 272.715,240.462 230.780 C 240.542 202.645,240.705 179.884,240.826 180.202 C 241.174 181.122,242.974 182.940,246.243 185.674 C 247.912 187.070,249.603 188.491,250.000 188.831 C 250.397 189.172,252.023 190.532,253.613 191.854 C 255.202 193.175,256.828 194.550,257.225 194.907 C 257.623 195.264,259.440 196.784,261.263 198.284 C 263.086 199.784,264.777 201.207,265.022 201.445 C 265.266 201.684,266.893 203.049,268.638 204.480 C 270.382 205.910,272.008 207.276,272.251 207.514 C 272.493 207.753,274.119 209.118,275.863 210.549 C 277.608 211.980,279.234 213.345,279.476 213.584 C 279.719 213.822,281.344 215.188,283.089 216.618 C 284.833 218.049,286.459 219.415,286.702 219.653 C 286.944 219.892,288.572 221.256,290.320 222.686 C 292.067 224.115,293.757 225.527,294.075 225.823 C 294.393 226.119,296.019 227.483,297.688 228.853 C 299.357 230.223,300.788 231.422,300.867 231.517 C 300.947 231.612,302.637 233.053,304.624 234.718 C 308.018 237.562,309.890 239.133,319.220 246.971 C 321.286 248.707,324.538 251.438,326.445 253.040 C 333.589 259.041,337.245 262.112,340.896 265.181 C 342.962 266.917,346.344 269.753,348.410 271.482 C 350.477 273.211,352.493 274.904,352.890 275.245 C 353.288 275.585,354.913 276.946,356.503 278.268 C 358.092 279.591,359.718 280.957,360.116 281.304 C 360.513 281.652,362.139 283.020,363.728 284.346 C 365.318 285.672,367.204 287.265,367.919 287.886 L 369.220 289.015 382.370 288.944 L 395.520 288.873 396.753 286.705 C 399.422 282.010,399.591 276.287,397.199 271.566 C 396.794 270.768,396.401 269.718,396.325 269.234 C 396.249 268.749,396.016 268.027,395.807 267.630 C 395.598 267.233,395.270 266.485,395.077 265.968 C 394.885 265.452,394.613 265.029,394.474 265.029 C 394.334 265.029,394.220 264.828,394.220 264.583 C 394.220 264.040,388.824 258.671,388.279 258.671 C 388.193 258.671,387.821 258.345,387.453 257.948 C 387.085 257.551,386.695 257.225,386.586 257.225 C 386.477 257.225,386.087 256.900,385.719 256.503 C 385.351 256.105,384.967 255.780,384.866 255.780 C 384.765 255.780,384.442 255.553,384.147 255.275 C 383.342 254.513,382.234 253.632,382.158 253.693 C 382.121 253.723,381.658 253.327,381.130 252.813 C 380.602 252.299,379.610 251.423,378.926 250.867 C 378.241 250.311,377.430 249.640,377.122 249.376 C 376.814 249.112,376.026 248.462,375.372 247.931 C 374.718 247.400,374.018 246.803,373.817 246.604 C 373.616 246.405,373.371 246.243,373.273 246.243 C 373.174 246.243,372.792 245.918,372.424 245.520 C 372.056 245.123,371.666 244.798,371.557 244.798 C 371.449 244.798,371.058 244.473,370.690 244.075 C 370.322 243.678,369.938 243.353,369.837 243.353 C 369.736 243.353,369.413 243.125,369.119 242.847 C 368.313 242.085,367.205 241.204,367.129 241.266 C 367.092 241.295,366.630 240.899,366.102 240.385 C 365.574 239.871,364.646 239.061,364.040 238.584 C 363.433 238.107,362.621 237.436,362.236 237.093 C 361.850 236.750,360.998 236.035,360.344 235.504 C 359.689 234.972,358.989 234.375,358.788 234.176 C 358.587 233.978,358.342 233.815,358.244 233.815 C 358.145 233.815,357.764 233.490,357.395 233.092 C 357.027 232.695,356.637 232.370,356.528 232.370 C 356.420 232.370,356.029 232.045,355.661 231.647 C 355.293 231.250,354.909 230.925,354.808 230.925 C 354.707 230.925,354.387 230.697,354.098 230.419 C 353.808 230.141,353.084 229.523,352.488 229.046 C 351.893 228.569,351.110 227.919,350.749 227.601 C 350.387 227.283,349.600 226.633,349.000 226.156 C 348.399 225.679,347.593 225.008,347.207 224.665 C 346.821 224.323,345.970 223.607,345.315 223.076 C 344.660 222.545,343.960 221.947,343.759 221.749 C 343.558 221.550,343.313 221.387,343.215 221.387 C 343.117 221.387,342.735 221.062,342.366 220.665 C 341.998 220.267,341.608 219.942,341.499 219.942 C 341.391 219.942,341.001 219.617,340.632 219.220 C 340.264 218.822,339.880 218.497,339.779 218.497 C 339.678 218.497,339.343 218.270,339.035 217.991 C 338.727 217.713,337.999 217.095,337.418 216.618 C 336.836 216.142,336.149 215.524,335.891 215.246 C 335.632 214.967,335.285 214.740,335.120 214.740 C 334.955 214.740,334.575 214.415,334.277 214.017 C 333.978 213.620,333.619 213.295,333.478 213.295 C 333.251 213.295,332.681 212.821,330.607 210.910 C 330.305 210.632,330.058 210.480,330.058 210.571 C 330.058 210.663,329.716 210.332,329.299 209.837 C 328.882 209.341,328.486 208.989,328.420 209.056 C 328.354 209.122,327.875 208.770,327.357 208.273 C 326.032 207.003,324.004 205.383,323.447 205.150 C 323.188 205.042,323.092 204.945,323.233 204.934 C 323.373 204.922,323.113 204.628,322.655 204.278 C 322.196 203.929,321.073 203.006,320.159 202.227 C 319.245 201.447,318.497 200.885,318.497 200.978 C 318.497 201.070,318.057 200.725,317.519 200.212 C 316.982 199.698,316.137 198.952,315.643 198.555 C 315.148 198.158,314.365 197.507,313.902 197.110 C 313.439 196.712,312.653 196.062,312.155 195.665 C 311.658 195.267,310.882 194.617,310.430 194.220 C 308.711 192.708,308.083 192.197,307.946 192.197 C 307.868 192.197,307.563 191.969,307.269 191.691 C 306.299 190.772,303.694 188.588,303.286 188.351 C 303.065 188.223,302.581 187.833,302.211 187.484 C 300.878 186.230,298.495 184.246,298.187 184.135 C 298.014 184.072,297.588 183.715,297.241 183.340 C 296.894 182.965,296.532 182.659,296.436 182.659 C 296.341 182.659,295.880 182.301,295.411 181.864 C 294.182 180.717,293.169 179.881,292.112 179.143 C 291.602 178.787,291.120 178.408,291.040 178.300 C 290.961 178.193,289.921 177.303,288.728 176.323 C 286.213 174.256,284.210 172.561,283.638 172.017 C 283.418 171.807,283.237 171.714,283.237 171.810 C 283.237 171.906,282.860 171.599,282.399 171.128 C 281.938 170.656,281.515 170.297,281.459 170.330 C 281.404 170.363,280.803 169.853,280.124 169.195 L 278.889 168.000 335.838 100.402 C 367.161 63.223,393.018 32.543,393.298 32.225 C 394.875 30.438,398.296 26.269,399.085 25.173 L 400.000 23.902 399.997 16.069 L 399.994 8.237 398.769 6.620 C 395.131 1.821,390.564 -0.163,383.666 0.060 C 381.588 0.127,379.698 0.300,379.467 0.445 C 379.235 0.590,378.741 0.750,378.368 0.801 C 377.421 0.931,373.988 2.585,373.988 2.911 C 373.988 3.059,373.825 3.179,373.625 3.179 C 373.274 3.179,368.786 7.526,368.786 7.866 C 368.786 7.959,368.363 8.484,367.847 9.032 C 367.330 9.581,366.517 10.504,366.040 11.084 C 365.564 11.664,364.783 12.584,364.306 13.129 C 363.829 13.674,362.967 14.682,362.390 15.369 C 361.813 16.056,358.757 19.592,355.598 23.227 C 352.440 26.861,349.806 29.969,349.745 30.133 C 349.684 30.297,349.229 30.860,348.734 31.385 C 348.238 31.910,347.415 32.834,346.904 33.438 C 346.394 34.043,344.606 36.125,342.930 38.065 C 341.255 40.005,339.884 41.648,339.884 41.716 C 339.884 41.784,339.350 42.408,338.697 43.102 C 337.063 44.839,336.766 45.177,334.410 47.977 C 333.273 49.328,332.024 50.770,331.634 51.180 C 331.244 51.591,330.925 52.015,330.925 52.122 C 330.925 52.230,330.418 52.869,329.798 53.543 C 329.179 54.217,327.677 55.939,326.462 57.370 C 325.247 58.801,323.889 60.361,323.445 60.838 C 323.001 61.315,320.920 63.721,318.821 66.185 C 316.722 68.649,314.459 71.281,313.793 72.034 C 313.127 72.787,312.492 73.632,312.381 73.912 C 312.270 74.193,312.170 74.299,312.159 74.149 C 312.148 73.999,311.825 74.302,311.441 74.822 C 310.718 75.801,308.563 78.380,307.803 79.174 C 307.565 79.423,305.964 81.252,304.246 83.238 C 302.527 85.225,300.772 87.250,300.344 87.740 C 297.058 91.502,296.498 92.170,296.560 92.250 C 296.598 92.300,296.120 92.882,295.497 93.543 C 294.874 94.204,293.909 95.295,293.353 95.967 C 292.796 96.640,291.756 97.867,291.040 98.695 C 290.325 99.523,289.220 100.818,288.584 101.573 C 287.948 102.327,287.148 103.225,286.805 103.567 C 286.462 103.910,285.835 104.711,285.411 105.347 C 284.986 105.983,284.595 106.438,284.542 106.358 C 284.489 106.279,284.144 106.604,283.776 107.081 C 283.407 107.558,282.908 108.106,282.666 108.300 C 282.424 108.494,282.328 108.656,282.452 108.661 C 282.577 108.666,282.219 109.074,281.657 109.568 C 281.096 110.061,280.636 110.590,280.636 110.743 C 280.636 110.896,280.213 111.443,279.697 111.959 C 279.180 112.475,278.275 113.474,277.686 114.180 C 277.097 114.885,276.274 115.853,275.859 116.329 C 275.443 116.806,274.762 117.652,274.346 118.208 C 273.929 118.764,273.418 119.364,273.211 119.540 C 273.004 119.716,272.434 120.366,271.943 120.985 C 271.453 121.604,270.535 122.663,269.903 123.338 C 269.271 124.014,268.827 124.566,268.916 124.566 C 269.004 124.566,268.556 125.037,267.920 125.612 C 267.284 126.187,266.763 126.759,266.763 126.883 C 266.763 127.088,265.981 127.998,264.036 130.058 C 263.660 130.455,263.015 131.286,262.601 131.904 C 262.188 132.523,261.850 132.935,261.850 132.822 C 261.850 132.708,261.492 133.047,261.055 133.576 C 260.618 134.105,260.163 134.581,260.043 134.634 C 259.924 134.687,259.827 134.858,259.827 135.014 C 259.827 135.170,259.453 135.612,258.997 135.995 C 258.541 136.379,258.005 137.086,257.806 137.566 C 257.607 138.046,257.298 138.443,257.118 138.447 C 256.939 138.452,256.467 138.908,256.069 139.462 C 255.672 140.016,254.892 140.975,254.335 141.593 C 253.779 142.211,252.803 143.322,252.168 144.062 C 251.532 144.802,250.740 145.693,250.408 146.042 C 250.076 146.391,249.393 147.249,248.890 147.948 C 248.388 148.647,247.977 149.125,247.977 149.010 C 247.977 148.894,247.621 149.232,247.187 149.761 C 246.752 150.290,246.264 150.818,246.103 150.935 C 245.941 151.052,245.912 151.149,246.038 151.152 C 246.164 151.154,245.774 151.663,245.171 152.283 C 243.090 154.422,242.186 155.486,241.882 156.154 C 241.715 156.522,241.327 156.980,241.020 157.171 C 240.470 157.515,240.462 156.568,240.458 86.057 C 240.454 9.054,240.532 13.170,238.994 9.682 C 236.946 5.038,233.152 1.850,228.151 0.571 C 226.065 0.037,199.598 -0.369,199.104 0.125 " stroke="none" fill="#24343c" fill-rule="evenodd"></path><path id="path1" d="" stroke="none" fill="#28343c" fill-rule="evenodd"></path><path id="path2" d="" stroke="none" fill="#28343c" fill-rule="evenodd"></path><path id="path3" d="" stroke="none" fill="#28343c" fill-rule="evenodd"></path><path id="path4" d="" stroke="none" fill="#28343c" fill-rule="evenodd"></path></g></svg>