<svg id="svg" version="1.1" xmlns="http://www.w3.org/2000/svg" xmlns:xlink="http://www.w3.org/1999/xlink" width="400" height="400" viewBox="0, 0, 400,400"><g id="svgg"><path id="path0" d="M195.297 0.443 C 73.904 6.871,-12.488 124.609,18.050 242.000 C 18.937 245.410,19.720 248.470,19.790 248.800 C 20.070 250.126,24.425 262.898,24.877 263.719 C 25.143 264.204,25.396 264.780,25.437 265.000 C 25.627 265.999,28.216 272.171,29.967 275.800 C 31.028 278.000,32.215 280.485,32.605 281.322 L 33.312 282.845 17.080 329.522 C 8.152 355.195,0.658 376.920,0.426 377.800 C -0.727 382.178,0.444 388.601,2.900 391.363 C 3.285 391.797,3.600 392.358,3.600 392.612 C 3.600 393.216,8.572 397.986,9.265 398.047 C 9.559 398.073,9.935 398.073,10.100 398.047 C 10.265 398.021,10.400 398.160,10.400 398.356 C 10.400 399.727,22.160 400.561,23.682 399.298 C 23.967 399.061,24.334 398.848,24.498 398.824 C 26.043 398.598,27.159 398.258,27.032 398.051 C 26.947 397.913,27.264 397.773,27.738 397.739 C 28.212 397.705,29.140 397.451,29.800 397.173 C 31.226 396.572,31.095 396.617,32.600 396.212 C 33.260 396.035,34.160 395.696,34.600 395.459 C 35.040 395.222,35.490 395.012,35.600 394.992 C 37.055 394.731,42.000 392.960,42.000 392.700 C 42.000 392.509,42.188 392.469,42.418 392.611 C 42.647 392.753,43.052 392.703,43.318 392.500 C 43.583 392.297,44.880 391.805,46.200 391.407 C 47.520 391.009,49.050 390.502,49.600 390.280 C 50.150 390.058,50.839 389.829,51.131 389.769 C 51.423 389.710,51.963 389.528,52.331 389.365 C 52.699 389.202,53.090 389.046,53.200 389.017 C 53.963 388.821,56.673 387.852,57.000 387.659 C 57.220 387.529,57.690 387.378,58.045 387.322 C 58.400 387.267,59.210 387.007,59.845 386.744 C 60.480 386.482,61.090 386.237,61.200 386.200 C 61.310 386.163,61.940 385.907,62.600 385.631 C 63.260 385.355,64.086 385.071,64.435 385.000 C 66.314 384.618,68.400 383.826,68.400 383.494 C 68.400 383.285,68.664 383.216,68.987 383.340 C 69.310 383.464,69.668 383.413,69.783 383.228 C 69.897 383.043,71.163 382.574,72.595 382.186 C 74.028 381.799,75.200 381.317,75.200 381.117 C 75.200 380.917,75.378 380.863,75.596 380.997 C 75.813 381.132,76.578 380.969,77.296 380.635 C 78.013 380.301,81.570 379.007,85.200 377.759 C 88.830 376.511,92.250 375.305,92.800 375.079 C 93.350 374.852,93.935 374.629,94.100 374.584 C 94.265 374.538,94.490 374.455,94.600 374.400 C 94.710 374.345,94.980 374.255,95.200 374.200 C 95.420 374.145,95.690 374.055,95.800 374.000 C 95.910 373.945,96.135 373.870,96.300 373.834 C 97.491 373.571,102.296 371.817,102.700 371.498 C 102.975 371.280,103.200 371.236,103.200 371.400 C 103.200 371.564,103.470 371.474,103.800 371.200 C 104.130 370.926,104.400 370.806,104.400 370.934 C 104.400 371.124,110.615 369.044,112.800 368.122 C 113.130 367.983,113.535 367.831,113.700 367.785 C 113.865 367.738,114.090 367.655,114.200 367.600 C 114.310 367.545,114.580 367.455,114.800 367.400 C 115.020 367.345,115.290 367.255,115.400 367.200 C 115.510 367.145,115.765 367.078,115.967 367.050 C 116.168 367.023,116.453 366.880,116.600 366.733 C 116.747 366.586,117.482 366.829,118.233 367.273 C 118.985 367.716,119.603 367.926,119.606 367.740 C 119.609 367.553,119.744 367.591,119.906 367.825 C 120.068 368.059,121.280 368.676,122.600 369.196 C 123.920 369.717,125.429 370.471,125.954 370.871 C 126.479 371.272,127.160 371.600,127.468 371.600 C 127.776 371.600,128.477 371.894,129.027 372.254 C 129.576 372.614,130.140 372.794,130.280 372.653 C 130.420 372.513,130.829 372.664,131.188 372.990 C 131.548 373.315,132.192 373.649,132.621 373.731 C 133.049 373.814,134.440 374.358,135.711 374.941 C 136.983 375.523,138.468 376.000,139.011 376.000 C 139.555 376.000,140.000 376.180,140.000 376.400 C 140.000 376.620,140.339 376.800,140.754 376.800 C 141.169 376.800,142.024 377.069,142.654 377.398 C 143.284 377.726,144.306 377.996,144.924 377.998 C 145.570 377.999,145.942 378.170,145.800 378.400 C 145.660 378.626,145.988 378.800,146.553 378.800 C 147.103 378.800,147.651 378.959,147.771 379.154 C 147.892 379.349,148.487 379.606,149.095 379.726 C 150.051 379.914,153.768 380.873,155.600 381.404 C 156.753 381.738,159.807 382.472,160.600 382.606 C 161.040 382.681,162.376 383.017,163.568 383.353 C 164.760 383.689,165.881 383.873,166.060 383.763 C 166.238 383.653,166.752 383.760,167.203 384.002 C 168.195 384.532,181.090 386.713,185.000 387.011 C 186.540 387.129,188.970 387.350,190.400 387.503 C 193.869 387.875,217.706 387.831,222.000 387.445 C 223.870 387.277,225.985 387.159,226.700 387.182 C 227.415 387.206,228.000 387.076,228.000 386.893 C 228.000 386.710,228.632 386.634,229.406 386.725 C 230.179 386.815,231.070 386.674,231.386 386.411 C 231.703 386.149,232.298 386.041,232.710 386.171 C 233.122 386.302,234.795 386.133,236.429 385.796 C 238.063 385.460,239.850 385.116,240.400 385.033 C 241.965 384.796,244.038 384.393,246.000 383.945 C 246.990 383.719,248.070 383.473,248.400 383.400 C 248.730 383.326,250.620 382.880,252.600 382.409 C 254.580 381.938,256.425 381.533,256.700 381.510 C 256.975 381.486,257.200 381.355,257.200 381.219 C 257.200 381.083,257.560 380.937,258.000 380.895 C 259.681 380.735,260.000 380.659,260.000 380.419 C 260.000 380.283,260.315 380.148,260.700 380.119 C 261.411 380.065,262.918 379.727,263.100 379.581 C 263.155 379.536,263.380 379.455,263.600 379.400 C 263.820 379.345,264.090 379.255,264.200 379.200 C 264.310 379.145,264.580 379.055,264.800 379.000 C 265.020 378.945,265.290 378.855,265.400 378.800 C 265.510 378.745,265.780 378.655,266.000 378.600 C 266.220 378.545,266.490 378.455,266.600 378.400 C 266.710 378.345,266.980 378.255,267.200 378.200 C 267.420 378.145,267.690 378.055,267.800 378.000 C 267.910 377.945,268.180 377.855,268.400 377.800 C 268.620 377.745,268.935 377.656,269.100 377.603 C 269.265 377.549,269.535 377.527,269.700 377.553 C 269.865 377.579,270.000 377.420,270.000 377.200 C 270.000 376.980,270.135 376.829,270.300 376.865 C 270.952 377.005,274.400 375.882,274.400 375.529 C 274.400 375.322,274.588 375.269,274.818 375.411 C 275.047 375.553,275.452 375.497,275.718 375.287 C 275.983 375.078,277.145 374.598,278.300 374.221 C 279.455 373.844,280.400 373.370,280.400 373.168 C 280.400 372.966,280.777 372.800,281.238 372.800 C 281.699 372.800,282.554 372.553,283.138 372.251 C 283.722 371.948,286.720 370.506,289.800 369.045 C 292.880 367.584,295.670 366.208,296.000 365.988 C 296.330 365.768,297.095 365.393,297.700 365.155 C 298.305 364.917,298.800 364.559,298.800 364.361 C 298.800 364.162,299.087 364.000,299.437 364.000 C 299.787 364.000,300.531 363.640,301.091 363.200 C 301.650 362.760,302.328 362.400,302.596 362.400 C 302.865 362.400,303.899 361.778,304.894 361.018 C 305.889 360.259,306.786 359.720,306.888 359.821 C 306.989 359.922,307.398 359.644,307.798 359.202 C 308.197 358.761,308.702 358.400,308.921 358.400 C 309.328 358.400,313.641 355.668,314.000 355.182 C 314.110 355.033,314.785 354.612,315.500 354.246 C 316.215 353.879,316.800 353.393,316.800 353.166 C 316.800 352.939,316.980 352.864,317.200 353.000 C 317.420 353.136,317.600 353.069,317.600 352.851 C 317.600 352.632,317.951 352.343,318.380 352.206 C 318.808 352.070,319.740 351.417,320.450 350.754 C 321.160 350.090,322.258 349.280,322.891 348.953 C 323.523 348.626,324.141 348.098,324.263 347.779 C 324.386 347.461,324.663 347.200,324.880 347.200 C 326.792 347.200,346.581 328.572,352.301 321.388 C 353.171 320.294,354.562 318.680,355.391 317.800 C 358.678 314.313,370.198 297.999,372.197 294.000 C 372.582 293.230,373.158 292.302,373.477 291.937 C 374.392 290.891,380.505 278.967,383.492 272.400 C 383.842 271.630,384.471 270.325,384.890 269.500 C 385.309 268.675,385.558 268.000,385.445 268.000 C 385.332 268.000,385.969 266.246,386.861 264.101 C 387.754 261.957,388.547 259.932,388.625 259.601 C 388.754 259.051,390.926 252.483,391.602 250.600 C 393.693 244.774,397.222 228.266,398.394 218.820 C 406.939 149.970,379.713 83.923,325.000 40.773 C 289.078 12.442,242.456 -2.055,195.297 0.443 M221.737 24.645 C 225.002 24.947,228.692 25.368,229.937 25.580 C 231.181 25.792,233.910 26.248,236.000 26.593 C 262.032 30.898,292.253 44.654,312.761 61.534 C 320.972 68.292,328.798 75.830,334.218 82.200 C 335.528 83.740,336.691 85.090,336.802 85.200 C 339.199 87.578,348.332 100.434,352.005 106.600 C 352.529 107.480,353.061 108.290,353.188 108.400 C 353.571 108.733,361.423 124.470,362.170 126.400 C 362.552 127.390,363.113 128.740,363.414 129.400 C 366.937 137.107,371.613 153.165,373.587 164.341 C 380.503 203.482,373.186 244.749,353.258 279.000 C 349.874 284.816,340.835 298.063,339.202 299.600 C 339.085 299.710,338.182 300.790,337.195 302.000 C 309.977 335.388,269.374 357.539,226.200 362.553 C 192.482 366.470,160.766 360.899,129.364 345.544 C 118.719 340.338,116.187 340.566,94.800 348.658 C 94.088 348.927,82.775 352.891,70.899 357.032 C 66.224 358.662,58.484 361.361,53.699 363.030 C 39.657 367.928,27.879 372.000,27.756 372.000 C 27.621 372.000,28.318 369.745,28.808 368.600 C 29.113 367.887,29.556 366.535,29.857 365.400 C 29.916 365.180,30.523 363.470,31.207 361.600 C 31.891 359.730,32.524 357.930,32.614 357.600 C 32.704 357.270,33.338 355.470,34.023 353.600 C 34.708 351.730,35.339 349.930,35.425 349.600 C 35.511 349.270,36.224 347.200,37.009 345.000 C 37.794 342.800,38.491 340.820,38.558 340.600 C 38.625 340.380,38.790 339.930,38.926 339.600 C 39.344 338.580,41.213 333.040,41.389 332.298 C 41.480 331.913,41.665 331.418,41.800 331.200 C 41.935 330.982,42.118 330.487,42.206 330.102 C 42.295 329.716,42.922 327.870,43.600 326.000 C 44.278 324.130,44.908 322.330,45.000 322.000 C 45.092 321.670,45.722 319.870,46.400 318.000 C 47.078 316.130,47.708 314.330,47.800 314.000 C 47.892 313.670,48.522 311.870,49.200 310.000 C 49.878 308.130,50.508 306.330,50.599 306.000 C 50.690 305.670,51.505 303.330,52.410 300.800 C 57.403 286.845,57.363 286.994,57.382 282.000 L 57.400 277.400 53.537 269.400 C 37.433 236.054,32.409 203.402,37.841 167.400 C 39.487 156.494,44.197 139.383,47.693 131.618 C 48.134 130.638,48.536 129.648,48.586 129.418 C 48.636 129.188,48.863 128.550,49.091 128.000 C 49.318 127.450,49.526 126.865,49.553 126.700 C 49.677 125.939,58.813 108.328,60.188 106.200 C 73.849 85.060,85.286 72.353,103.146 58.472 C 106.221 56.083,118.095 48.000,118.531 48.000 C 118.643 48.000,120.144 47.163,121.867 46.140 C 149.772 29.578,187.440 21.471,221.737 24.645 M142.400 89.076 C 135.920 90.161,134.018 91.549,120.059 105.377 C 104.215 121.073,102.643 123.207,100.454 132.000 C 97.903 142.250,100.231 159.599,105.876 172.400 C 108.915 179.291,115.658 192.066,119.137 197.522 C 124.083 205.279,124.956 206.614,125.209 206.800 C 125.358 206.910,125.712 207.450,125.996 208.000 C 126.555 209.085,131.565 216.073,132.017 216.400 C 132.170 216.510,132.813 217.333,133.447 218.229 C 135.030 220.466,138.245 224.539,140.351 226.975 C 145.590 233.032,148.184 235.786,156.199 243.800 C 163.882 251.482,166.884 254.326,171.529 258.321 C 172.118 258.827,173.185 259.808,173.900 260.501 C 174.615 261.194,175.200 261.626,175.200 261.460 C 175.200 261.294,175.650 261.644,176.200 262.238 C 176.750 262.831,177.200 263.207,177.200 263.072 C 177.200 262.857,177.811 263.374,180.434 265.811 C 180.782 266.135,181.258 266.400,181.491 266.400 C 181.724 266.400,182.018 266.670,182.145 267.000 C 182.271 267.330,182.631 267.600,182.945 267.600 C 183.258 267.600,183.618 267.870,183.745 268.200 C 183.871 268.530,184.231 268.800,184.545 268.800 C 184.858 268.800,185.218 269.070,185.345 269.400 C 185.471 269.730,185.831 270.000,186.145 270.000 C 186.458 270.000,186.818 270.270,186.945 270.600 C 187.071 270.930,187.451 271.200,187.787 271.200 C 188.124 271.200,188.400 271.380,188.400 271.600 C 188.400 271.820,188.595 272.000,188.833 272.000 C 189.071 272.000,190.096 272.675,191.110 273.500 C 192.125 274.325,192.810 274.759,192.632 274.465 C 192.455 274.171,193.446 274.846,194.835 275.965 C 196.224 277.084,197.594 278.000,197.880 278.000 C 198.166 278.000,198.400 278.136,198.400 278.302 C 198.400 278.469,198.985 278.863,199.700 279.178 C 200.415 279.493,201.240 279.989,201.532 280.279 C 201.825 280.570,202.258 280.688,202.494 280.542 C 202.730 280.396,202.817 280.449,202.686 280.660 C 202.556 280.872,203.113 281.393,203.924 281.818 C 204.736 282.244,205.490 282.684,205.600 282.796 C 206.183 283.391,209.119 284.748,209.341 284.526 C 209.483 284.383,209.600 284.444,209.600 284.660 C 209.600 285.179,212.608 286.859,212.941 286.526 C 213.083 286.383,213.200 286.507,213.200 286.800 C 213.200 287.093,213.305 287.228,213.434 287.100 C 213.562 286.971,214.018 287.166,214.447 287.533 C 214.875 287.900,215.335 288.140,215.468 288.066 C 215.602 287.992,215.821 288.092,215.955 288.287 C 216.312 288.806,219.524 290.400,220.212 290.400 C 220.536 290.400,220.800 290.535,220.801 290.700 C 220.802 290.969,224.377 292.759,226.700 293.653 C 227.195 293.844,228.005 294.164,228.500 294.364 C 229.345 294.705,230.752 295.245,231.200 295.400 C 231.310 295.438,231.701 295.602,232.069 295.765 C 232.437 295.928,232.977 296.111,233.269 296.170 C 233.561 296.230,234.101 296.410,234.469 296.570 C 234.837 296.731,235.377 296.898,235.669 296.942 C 235.961 296.986,236.425 297.163,236.700 297.335 C 236.975 297.507,237.380 297.536,237.600 297.400 C 237.820 297.264,238.000 297.333,238.000 297.553 C 238.000 297.774,238.360 297.885,238.800 297.800 C 239.240 297.715,239.600 297.837,239.600 298.070 C 239.600 298.303,239.960 298.399,240.400 298.284 C 240.840 298.169,241.200 298.249,241.200 298.463 C 241.200 298.676,241.515 298.798,241.900 298.735 C 242.285 298.672,242.780 298.733,243.000 298.870 C 243.220 299.008,244.300 299.233,245.400 299.370 C 246.500 299.507,247.940 299.716,248.600 299.835 C 252.503 300.538,262.572 300.881,264.539 300.379 C 265.233 300.203,266.741 299.869,267.891 299.638 C 269.041 299.407,270.661 298.918,271.491 298.550 C 272.321 298.183,273.234 297.834,273.521 297.774 C 273.807 297.714,274.527 297.340,275.121 296.943 C 275.714 296.546,276.290 296.215,276.400 296.209 C 278.007 296.114,308.144 267.600,306.638 267.600 C 306.476 267.600,306.581 267.336,306.871 267.014 C 308.084 265.670,308.387 265.208,309.022 263.741 C 312.928 254.719,311.499 245.454,305.045 237.951 C 300.163 232.276,276.320 209.070,273.934 207.672 C 262.842 201.170,253.062 203.424,241.406 215.167 C 235.378 221.239,236.320 220.896,232.235 218.509 C 210.663 205.897,193.017 188.045,180.304 165.972 L 179.251 164.145 184.910 158.430 C 188.022 155.287,190.755 152.390,190.984 151.992 C 191.213 151.594,191.989 150.280,192.708 149.072 C 196.364 142.931,196.515 135.224,193.119 128.000 C 191.050 123.596,161.965 94.072,157.326 91.664 C 152.926 89.381,146.861 88.330,142.400 89.076 M164.327 145.112 C 151.810 157.784,150.933 164.848,160.130 178.906 C 160.608 179.638,161.343 180.858,161.761 181.618 C 162.951 183.779,168.544 192.185,168.890 192.333 C 169.060 192.407,169.200 192.645,169.200 192.862 C 169.200 193.079,169.425 193.492,169.700 193.780 C 169.975 194.067,170.470 194.701,170.800 195.190 C 171.588 196.355,174.509 200.150,175.232 200.948 C 175.544 201.292,176.430 202.325,177.200 203.242 C 181.242 208.059,188.128 215.131,192.742 219.203 C 194.360 220.631,196.285 222.340,197.021 223.000 C 197.756 223.660,198.862 224.602,199.479 225.092 C 200.096 225.583,201.166 226.438,201.858 226.992 C 202.550 227.547,203.271 228.000,203.462 228.000 C 203.652 228.000,204.032 228.360,204.307 228.800 C 204.582 229.240,205.060 229.600,205.370 229.600 C 205.680 229.600,205.993 229.743,206.067 229.917 C 206.140 230.091,206.875 230.646,207.700 231.150 C 208.525 231.653,209.200 232.241,209.200 232.456 C 209.200 232.671,209.361 232.748,209.558 232.626 C 209.755 232.504,210.024 232.685,210.155 233.028 C 210.287 233.370,210.577 233.538,210.800 233.400 C 211.023 233.262,211.313 233.430,211.445 233.772 C 211.576 234.115,211.834 234.303,212.017 234.189 C 212.201 234.076,212.536 234.302,212.763 234.692 C 212.990 235.081,213.181 235.258,213.188 235.084 C 213.195 234.911,213.476 235.001,213.814 235.284 C 215.511 236.710,216.572 237.416,217.861 237.976 C 218.335 238.182,218.840 238.542,218.985 238.775 C 219.129 239.009,219.597 239.200,220.024 239.200 C 220.451 239.200,220.800 239.380,220.800 239.600 C 220.800 239.820,221.070 240.000,221.400 240.000 C 221.730 240.000,222.000 240.162,222.000 240.361 C 222.000 240.559,222.495 240.919,223.100 241.161 C 223.705 241.403,224.830 241.982,225.600 242.449 C 226.370 242.916,227.180 243.328,227.400 243.365 C 227.620 243.401,228.273 243.745,228.850 244.129 C 229.428 244.513,230.328 244.925,230.850 245.045 C 231.373 245.165,232.250 245.362,232.800 245.483 C 234.628 245.886,239.237 246.072,239.924 245.771 C 240.296 245.607,240.838 245.513,241.130 245.561 C 241.421 245.609,241.916 245.436,242.230 245.175 C 242.543 244.915,242.800 244.818,242.800 244.959 C 242.800 245.310,245.882 243.715,246.200 243.199 C 246.341 242.972,246.620 242.889,246.821 243.013 C 247.021 243.137,250.505 239.930,254.562 235.886 L 261.938 228.533 274.466 241.066 L 286.995 253.599 276.797 263.810 L 266.600 274.020 263.546 274.989 C 254.802 277.763,245.238 276.883,237.553 272.599 C 236.149 271.817,232.673 269.994,229.829 268.550 C 191.286 248.971,156.431 215.548,135.621 178.211 C 123.673 156.773,121.566 149.978,123.776 140.000 C 125.184 133.639,124.692 134.326,135.908 123.088 L 146.200 112.776 158.764 125.400 L 171.328 138.025 164.327 145.112 " stroke="none" fill="#24343c" fill-rule="evenodd"></path><path id="path1" d="M157.600 124.600 C 164.087 131.090,169.485 136.400,169.595 136.400 C 169.705 136.400,164.487 131.090,158.000 124.600 C 151.513 118.110,146.115 112.800,146.005 112.800 C 145.895 112.800,151.113 118.110,157.600 124.600 M274.000 241.000 C 280.927 247.930,286.685 253.600,286.795 253.600 C 286.905 253.600,281.327 247.930,274.400 241.000 C 267.473 234.070,261.715 228.400,261.605 228.400 C 261.495 228.400,267.073 234.070,274.000 241.000 M372.600 293.200 C 372.259 293.860,372.069 294.400,372.179 294.400 C 372.289 294.400,372.659 293.860,373.000 293.200 C 373.341 292.540,373.531 292.000,373.421 292.000 C 373.311 292.000,372.941 292.540,372.600 293.200 " stroke="none" fill="#28343c" fill-rule="evenodd"></path><path id="path2" d="M157.600 124.600 C 164.087 131.090,169.485 136.400,169.595 136.400 C 169.705 136.400,164.487 131.090,158.000 124.600 C 151.513 118.110,146.115 112.800,146.005 112.800 C 145.895 112.800,151.113 118.110,157.600 124.600 M274.000 241.000 C 280.927 247.930,286.685 253.600,286.795 253.600 C 286.905 253.600,281.327 247.930,274.400 241.000 C 267.473 234.070,261.715 228.400,261.605 228.400 C 261.495 228.400,267.073 234.070,274.000 241.000 M372.600 293.200 C 372.259 293.860,372.069 294.400,372.179 294.400 C 372.289 294.400,372.659 293.860,373.000 293.200 C 373.341 292.540,373.531 292.000,373.421 292.000 C 373.311 292.000,372.941 292.540,372.600 293.200 " stroke="none" fill="#28343c" fill-rule="evenodd"></path><path id="path3" d="M157.600 124.600 C 164.087 131.090,169.485 136.400,169.595 136.400 C 169.705 136.400,164.487 131.090,158.000 124.600 C 151.513 118.110,146.115 112.800,146.005 112.800 C 145.895 112.800,151.113 118.110,157.600 124.600 M274.000 241.000 C 280.927 247.930,286.685 253.600,286.795 253.600 C 286.905 253.600,281.327 247.930,274.400 241.000 C 267.473 234.070,261.715 228.400,261.605 228.400 C 261.495 228.400,267.073 234.070,274.000 241.000 M372.600 293.200 C 372.259 293.860,372.069 294.400,372.179 294.400 C 372.289 294.400,372.659 293.860,373.000 293.200 C 373.341 292.540,373.531 292.000,373.421 292.000 C 373.311 292.000,372.941 292.540,372.600 293.200 " stroke="none" fill="#28343c" fill-rule="evenodd"></path><path id="path4" d="M157.600 124.600 C 164.087 131.090,169.485 136.400,169.595 136.400 C 169.705 136.400,164.487 131.090,158.000 124.600 C 151.513 118.110,146.115 112.800,146.005 112.800 C 145.895 112.800,151.113 118.110,157.600 124.600 M274.000 241.000 C 280.927 247.930,286.685 253.600,286.795 253.600 C 286.905 253.600,281.327 247.930,274.400 241.000 C 267.473 234.070,261.715 228.400,261.605 228.400 C 261.495 228.400,267.073 234.070,274.000 241.000 M372.600 293.200 C 372.259 293.860,372.069 294.400,372.179 294.400 C 372.289 294.400,372.659 293.860,373.000 293.200 C 373.341 292.540,373.531 292.000,373.421 292.000 C 373.311 292.000,372.941 292.540,372.600 293.200 " stroke="none" fill="#28343c" fill-rule="evenodd"></path></g></svg>