<svg xmlns="http://www.w3.org/2000/svg" width="15.88" height="15.875" viewBox="0 0 15.88 15.875">
  <defs>
    <style>
      .cls-1 {
        fill: #26333c;
        fill-rule: evenodd;
      }
    </style>
  </defs>
  <path id="Shape_6_copy_2" data-name="Shape 6 copy 2" class="cls-1" d="M1401.56,102.019h-7.11a4.383,4.383,0,0,0-4.38,4.382v7.115a4.384,4.384,0,0,0,4.38,4.383h7.11a4.384,4.384,0,0,0,4.38-4.383V106.4A4.383,4.383,0,0,0,1401.56,102.019Zm2.98,11.5h0a2.988,2.988,0,0,1-2.98,2.973h-7.11a2.973,2.973,0,0,1-2.97-2.973V106.4a2.975,2.975,0,0,1,2.97-2.975h7.11a2.988,2.988,0,0,1,2.98,2.974v7.115Zm-2.27-8.841h0a1.032,1.032,0,0,0-1.03,1.033,1.03,1.03,0,1,0,1.76-.731A1.034,1.034,0,0,0,1402.27,104.674Zm-4.26,1.194a4.092,4.092,0,1,0,4.09,4.091A4.092,4.092,0,0,0,1398.01,105.868Zm0,6.773a2.683,2.683,0,1,1,2.68-2.682A2.683,2.683,0,0,1,1398.01,112.641Z" transform="translate(-1390.06 -102.031)"/>
</svg>
