<svg xmlns="http://www.w3.org/2000/svg" width="17.9" height="12.719" viewBox="0 0 17.9 12.719">
  <defs>
    <style>
      .cls-1 {
        fill: #26333c;
        fill-rule: evenodd;
      }
    </style>
  </defs>
  <path id="Shape_5_copy_2" data-name="Shape 5 copy 2" class="cls-1" d="M1343.86,114.982l-5.14-4.186,5.36-6.161a0.665,0.665,0,0,0-.09-0.974,0.76,0.76,0,0,0-1.03.091l-5.82,6.686a0.493,0.493,0,0,0-.07.107v-6.351a0.713,0.713,0,0,0-.73-0.692h-0.93a0.693,0.693,0,1,0,0,1.384h0.2v8.6l-7.94-9.719a0.749,0.749,0,0,0-1.02-.1,0.664,0.664,0,0,0-.12.95l9.23,11.313a0.752,0.752,0,0,0,1.02.121,0.68,0.68,0,0,0,.29-0.545v-4.294a0.653,0.653,0,0,0,.16.191l5.69,4.628a0.746,0.746,0,0,0,1.02-.074v0a0.658,0.658,0,0,0-.08-0.975h0Z" transform="translate(-1326.38 -103.5)"/>
</svg>
