<svg xmlns="http://www.w3.org/2000/svg" width="19" height="19.031" viewBox="0 0 19 19.031">
  <defs>
    <style>
      .cls-1 {
        fill: #26333c;
        fill-rule: evenodd;
      }
    </style>
  </defs>
  <path id="Shape_64_copy" data-name="Shape 64 copy" class="cls-1" d="M1467.8,102.807a9.147,9.147,0,0,0-6.52-2.7h0a9.227,9.227,0,0,0-8.19,13.444l-1.54,4.426a0.834,0.834,0,0,0,.2.886,0.845,0.845,0,0,0,.6.251,0.834,0.834,0,0,0,.28-0.049l4.43-1.549a9.243,9.243,0,0,0,4.22,1.025A9.216,9.216,0,0,0,1467.8,102.807Zm-0.79,12.246a8.038,8.038,0,0,1-5.73,2.373,8.145,8.145,0,0,1-3.8-.946,0.847,0.847,0,0,0-.68-0.054l-4.02,1.407,1.4-4.021a0.859,0.859,0,0,0-.05-0.684,8.087,8.087,0,0,1,1.43-9.533,8.04,8.04,0,0,1,5.72-2.373h0A8.1,8.1,0,0,1,1467.01,115.053Zm-2.3-4.905a1.089,1.089,0,0,0-1.54,0l-0.46.463a6.771,6.771,0,0,1-2.71-2.71l0.46-.464a1.078,1.078,0,0,0,0-1.538l-1.25-1.25a1.091,1.091,0,0,0-1.54,0l-1,1c-0.57.573-.6,1.557-0.08,2.772a11.147,11.147,0,0,0,2.33,3.265,10.949,10.949,0,0,0,3.27,2.329,4.024,4.024,0,0,0,1.55.371,1.666,1.666,0,0,0,1.22-.451l1-1h0a1.084,1.084,0,0,0,0-1.538Zm-0.54,3a1.59,1.59,0,0,1-1.54-.156,9.829,9.829,0,0,1-2.92-2.094,9.936,9.936,0,0,1-2.09-2.915,1.61,1.61,0,0,1-.16-1.545l0.98-.98,1.21,1.211-0.58.58a0.851,0.851,0,0,0-.15.991,7.817,7.817,0,0,0,3.45,3.454,0.85,0.85,0,0,0,.99-0.157l0.58-.581,1.21,1.211Z" transform="translate(-1451.5 -100.094)"/>
</svg>
